# MagicaVoxel @ ephtracy

# material
mtllib 1.mtl

# normals
vn -1 0 0
vn 1 0 0
vn 0 0 1
vn 0 0 -1
vn 0 -1 0
vn 0 1 0

# texcoords
vt 0.0175781 0.5
vt 0.0410156 0.5
vt 0.630859 0.5
vt 0.724609 0.5
vt 0.767578 0.5

# verts
v -9 2 5
v -9 3 5
v -9 3 4
v -9 2 4
v -1 2 -8
v -1 3 -8
v -1 3 -9
v -1 2 -9
v -5 2 -8
v -5 3 -8
v -5 3 -9
v -5 2 -9
v -4 2 5
v -4 3 5
v -4 3 4
v -4 2 4
v 6 2 5
v 6 3 5
v 6 3 4
v 6 2 4
v -8 2 -3
v -8 3 -3
v -8 3 -4
v -8 2 -4
v 7 2 -0
v 7 3 -0
v 7 3 -1
v 7 2 -1
v -5 2 -6
v -5 3 -6
v -5 3 -7
v -5 2 -7
v -2 2 -5
v -2 3 -5
v -2 3 -6
v -2 2 -6
v -5 2 7
v -5 3 7
v -5 3 6
v -5 2 6
v -1 2 -7
v -1 3 -7
v 4 2 -8
v 4 3 -8
v 4 3 -9
v 4 2 -9
v -10 2 -0
v -10 3 -0
v -10 3 -1
v -10 2 -1
v 6 2 -3
v 6 3 -3
v 6 3 -4
v 6 2 -4
v 3 2 7
v 3 3 7
v 3 3 6
v 3 2 6
v -6 2 -7
v -6 3 -7
v -6 3 -8
v -6 2 -8
v -8 2 4
v -8 3 4
v -8 3 3
v -8 2 3
v 6 3 -5
v 6 2 -5
v -4 2 -4
v -4 3 -4
v -4 3 -5
v -4 2 -5
v -5 2 9
v -5 3 9
v -5 3 8
v -5 2 8
v 3 2 -6
v 3 3 -6
v 3 3 -7
v 3 2 -7
v 7 2 6
v 7 3 6
v 7 3 5
v 7 2 5
v -10 2 1
v -10 3 1
v -6 2 -0
v -6 3 -0
v -6 3 -1
v -6 2 -1
v -5 2 -3
v -5 3 -3
v -5 3 -4
v -5 2 -4
v -1 2 9
v -1 3 9
v -1 3 8
v -1 2 8
v -8 2 6
v -8 3 6
v -8 3 5
v -8 2 5
v -6 3 -2
v -6 2 -2
v 3 3 -8
v 3 2 -8
v -1 3 -10
v -1 2 -10
v 3 2 8
v 3 3 8
v -1 3 7
v -1 2 7
v -8 2 -5
v -8 3 -5
v -8 3 -6
v -8 2 -6
v 4 2 9
v 4 3 9
v 4 3 8
v 4 2 8
v -6 2 8
v -6 3 8
v -6 3 7
v -6 2 7
v -5 2 4
v -5 3 4
v -5 3 3
v -5 2 3
v -5 2 -2
v -5 3 -2
v -1 2 10
v -1 3 10
v 6 3 3
v 6 2 3
v -5 3 2
v -5 2 2
v 7 2 -5
v 7 3 -5
v 7 3 -6
v 7 2 -6
v -6 2 1
v -6 3 1
v -2 2 6
v -2 3 6
v -2 3 5
v -2 2 5
v 7 2 1
v 7 3 1
v -9 2 -4
v -9 3 -4
v -9 3 -5
v -9 2 -5
v -6 2 2
v -6 3 2
v 4 2 -4
v 4 2 -5
v 4 3 -5
v 4 3 -4
v 1 2 9
v 1 2 8
v 1 3 8
v 1 3 9
v -6 2 5
v -6 2 4
v -6 3 4
v -6 3 5
v -4 2 -8
v -4 2 -9
v -4 3 -9
v -4 3 -8
v 4 2 5
v 4 2 4
v 4 3 4
v 4 3 5
v 10 2 1
v 10 2 -0
v 10 3 -0
v 10 3 1
v 1 2 -7
v 1 2 -8
v 1 3 -8
v 1 3 -7
v 9 2 5
v 9 2 4
v 9 3 4
v 9 3 5
v 6 2 1
v 6 2 -0
v 6 3 -0
v 6 3 1
v -7 2 -0
v -7 2 -1
v -7 3 -1
v -7 3 -0
v 1 2 -9
v 1 2 -10
v 1 3 -10
v 1 3 -9
v 5 2 3
v 5 2 2
v 5 3 2
v 5 3 3
v 5 2 -6
v 5 2 -7
v 5 3 -7
v 5 3 -6
v 8 2 4
v 8 2 3
v 8 3 3
v 8 3 4
v -3 2 -7
v -3 2 -8
v -3 3 -8
v -3 3 -7
v 8 2 -3
v 8 2 -4
v 8 3 -4
v 8 3 -3
v 6 2 -1
v 6 2 -2
v 6 3 -2
v 6 3 -1
v -3 2 7
v -3 2 6
v -3 3 6
v -3 3 7
v 5 2 -8
v 5 2 -9
v 5 3 -9
v 5 3 -8
v 5 2 7
v 5 2 6
v 5 3 6
v 5 3 7
v -4 2 9
v -4 2 8
v -4 3 8
v -4 3 9
v 10 2 -1
v 10 3 -1
v 1 2 10
v 1 3 10
v 5 2 -3
v 5 2 -4
v 5 3 -4
v 5 3 -3
v 8 2 6
v 8 2 5
v 8 3 5
v 8 3 6
v -7 2 6
v -7 2 5
v -7 3 5
v -7 3 6
v 5 2 -2
v 5 3 -2
v 6 2 8
v 6 2 7
v 6 3 7
v 6 3 8
v 1 2 7
v 1 3 7
v -7 2 -5
v -7 2 -6
v -7 3 -6
v -7 3 -5
v 5 2 9
v 5 2 8
v 5 3 8
v 5 3 9
v -3 2 8
v -3 3 8
v -7 2 1
v -7 3 1
v 5 2 4
v 5 3 4
v 6 2 2
v 6 3 2
v 9 2 -4
v 9 2 -5
v 9 3 -5
v 9 3 -4
v 6 2 -7
v 6 2 -8
v 6 3 -8
v 6 3 -7
v -6 2 3
v -6 3 3
v -6 2 -4
v -6 2 -5
v -6 3 -5
v -6 3 -4
v 2 2 6
v 2 2 5
v 2 3 5
v 2 3 6
v 8 2 -5
v 8 2 -6
v 8 3 -6
v 8 3 -5
v -3 2 -6
v -3 3 -6
v 2 2 -5
v 2 2 -6
v 2 3 -6
v 2 3 -5
v -6 2 -3
v -6 3 -3
v -3 2 5
v -3 3 5
v 3 2 5
v 3 3 5
v 9 2 1
v 9 3 1
v 0 2 -7
v 0 3 -7
v 0 2 6
v 1 2 6
v 1 3 6
v 0 3 6
v -9 2 1
v -8 2 1
v -8 3 1
v -9 3 1
v -7 2 -3
v -7 3 -3
v -4 2 -6
v -4 3 -6
v 4 2 -6
v 4 3 -6
v 7 2 -3
v 7 3 -3
v 0 2 10
v 0 3 10
v 8 2 1
v 8 3 1
v -1 2 6
v -1 3 6
v 3 2 -5
v 3 3 -5
v 0 2 -6
v 0 3 -6
v 1 3 -6
v 1 2 -6
v 8 3 -1
v 8 2 -1
v -9 2 -1
v -9 3 -1
v -8 3 -1
v -8 2 -1
v 9 3 -1
v 9 2 -1
v -1 3 -6
v -1 2 -6
v 0 2 -10
v 0 3 -10
v 7 2 3
v 7 3 3
v -4 3 6
v -4 2 6
v -3 2 -5
v -3 3 -5
v 4 3 6
v 4 2 6
v -7 3 3
v -7 2 3
v 0 2 7
v 0 3 7
v 3 2 -4
v 0 2 9
v 0 2 8
v 0 2 -3
v 0 2 -4
v 1 2 -4
v 1 2 -3
v -4 2 -3
v -3 2 -4
v -3 2 -3
v 2 2 -4
v 3 2 -3
v 4 2 -3
v -7 2 4
v 0 2 -9
v 0 2 -8
v -3 2 4
v -2 2 4
v -1 2 4
v -1 2 5
v 0 2 4
v 0 2 5
v 1 2 4
v 1 2 5
v 2 2 4
v 3 2 4
v 9 2 -0
v 7 2 4
v -9 2 -0
v -8 2 -0
v 0 2 -5
v 1 2 -5
v -7 2 -4
v 8 2 -0
v -1 2 -2
v -1 2 -3
v 0 2 -2
v -4 2 2
v -4 2 1
v -3 2 1
v -3 2 2
v -4 2 -7
v -5 2 -1
v -4 2 -2
v -4 2 -1
v -3 2 -1
v -3 2 -2
v -2 2 -2
v -2 2 -1
v 5 2 1
v 5 2 -0
v -1 2 -5
v 0 2 1
v 0 2 -0
v 1 2 -0
v 1 2 1
v -2 2 -0
v -1 2 -1
v -1 2 -0
v -4 2 3
v -3 2 3
v -2 2 -3
v -2 2 -4
v -1 2 -4
v 4 2 3
v 4 2 2
v 3 2 3
v 3 2 2
v 2 2 3
v 2 2 2
v 1 2 3
v 1 2 2
v 0 2 3
v 0 2 2
v 2 2 -0
v 2 2 -1
v 3 2 -1
v 3 2 -0
v 4 2 -7
v 0 2 -1
v 7 2 -4
v 4 2 -0
v 4 2 -1
v 5 2 -1
v -4 2 7
v -3 2 -0
v -2 2 1
v 4 2 7
v -2 2 3
v -2 2 2
v -1 2 2
v -1 2 3
v 2 2 1
v 3 2 1
v -5 2 1
v -5 2 -0
v -4 2 -0
v -1 2 1
v 1 2 -1
v 1 2 -2
v 2 2 -3
v 2 2 -2
v 4 2 -2
v 3 2 -2
v 4 2 1
v 3 3 -4
v 0 3 9
v 0 3 8
v 0 3 -3
v 1 3 -3
v 1 3 -4
v 0 3 -4
v -4 3 -3
v -3 3 -3
v -3 3 -4
v 2 3 -4
v 3 3 -3
v 4 3 -3
v -7 3 4
v 0 3 -8
v 0 3 -9
v -3 3 4
v -2 3 4
v -1 3 5
v -1 3 4
v 0 3 5
v 0 3 4
v 1 3 5
v 1 3 4
v 2 3 4
v 3 3 4
v 9 3 -0
v 7 3 4
v -8 3 -0
v -9 3 -0
v 0 3 -5
v 1 3 -5
v -7 3 -4
v 8 3 -0
v -1 3 -2
v 0 3 -2
v -1 3 -3
v -4 3 2
v -3 3 2
v -3 3 1
v -4 3 1
v -4 3 -7
v -5 3 -1
v -4 3 -1
v -4 3 -2
v -3 3 -1
v -2 3 -1
v -2 3 -2
v -3 3 -2
v 5 3 1
v 5 3 -0
v -1 3 -5
v 0 3 1
v 1 3 1
v 1 3 -0
v 0 3 -0
v -2 3 -0
v -1 3 -0
v -1 3 -1
v -4 3 3
v -3 3 3
v -2 3 -3
v -1 3 -4
v -2 3 -4
v 4 3 3
v 4 3 2
v 3 3 3
v 3 3 2
v 2 3 3
v 2 3 2
v 1 3 3
v 1 3 2
v 0 3 3
v 0 3 2
v 2 3 -0
v 3 3 -0
v 3 3 -1
v 2 3 -1
v 4 3 -7
v 0 3 -1
v 7 3 -4
v 4 3 -0
v 5 3 -1
v 4 3 -1
v -4 3 7
v -2 3 1
v -3 3 -0
v 4 3 7
v -2 3 3
v -1 3 3
v -1 3 2
v -2 3 2
v 2 3 1
v 3 3 1
v -5 3 1
v -4 3 -0
v -5 3 -0
v -1 3 1
v 1 3 -1
v 1 3 -2
v 2 3 -2
v 2 3 -3
v 4 3 -2
v 3 3 -2
v 4 3 1

# faces

usemtl palette

f 1/1/1 2/1/1 3/1/1 4/1/1

f 5/1/1 6/1/1 7/1/1 8/1/1

f 9/1/1 10/1/1 11/1/1 12/1/1

f 13/1/1 14/1/1 15/1/1 16/1/1

f 17/1/1 18/1/1 19/1/1 20/1/1

f 21/1/1 22/1/1 23/1/1 24/1/1

f 25/1/1 26/1/1 27/1/1 28/1/1

f 29/1/1 30/1/1 31/1/1 32/1/1

f 33/1/1 34/1/1 35/1/1 36/1/1

f 37/1/1 38/1/1 39/1/1 40/1/1

f 41/1/1 42/1/1 6/1/1 5/1/1

f 43/1/1 44/1/1 45/1/1 46/1/1

f 47/1/1 48/1/1 49/1/1 50/1/1

f 51/1/1 52/1/1 53/1/1 54/1/1

f 55/1/1 56/1/1 57/1/1 58/1/1

f 59/1/1 60/1/1 61/1/1 62/1/1

f 63/1/1 64/1/1 65/1/1 66/1/1

f 54/1/1 53/1/1 67/1/1 68/1/1

f 69/1/1 70/1/1 71/1/1 72/1/1

f 73/1/1 74/1/1 75/1/1 76/1/1

f 77/1/1 78/1/1 79/1/1 80/1/1

f 81/1/1 82/1/1 83/1/1 84/1/1

f 85/1/1 86/1/1 48/1/1 47/1/1

f 87/1/1 88/1/1 89/1/1 90/1/1

f 91/1/1 92/1/1 93/1/1 94/1/1

f 95/1/1 96/1/1 97/1/1 98/1/1

f 99/1/1 100/1/1 101/1/1 102/1/1

f 90/1/1 89/1/1 103/1/1 104/1/1

f 80/1/1 79/1/1 105/1/1 106/1/1

f 8/1/1 7/1/1 107/1/1 108/1/1

f 109/1/1 110/1/1 56/1/1 55/1/1

f 98/1/1 97/1/1 111/1/1 112/1/1

f 113/1/1 114/1/1 115/1/1 116/1/1

f 117/1/1 118/1/1 119/1/1 120/1/1

f 121/1/1 122/1/1 123/1/1 124/1/1

f 125/1/1 126/1/1 127/1/1 128/1/1

f 129/1/1 130/1/1 92/1/1 91/1/1

f 131/1/1 132/1/1 96/1/1 95/1/1

f 20/1/1 19/1/1 133/1/1 134/1/1

f 128/1/1 127/1/1 135/1/1 136/1/1

f 137/1/1 138/1/1 139/1/1 140/1/1

f 141/1/1 142/1/1 88/1/1 87/1/1

f 143/1/1 144/1/1 145/1/1 146/1/1

f 147/1/1 148/1/1 26/1/1 25/1/1

f 149/1/1 150/1/1 151/1/1 152/1/1

f 153/1/1 154/1/1 142/1/1 141/1/1

f 155/1/2 156/1/2 157/1/2 158/1/2

f 159/1/2 160/1/2 161/1/2 162/1/2

f 163/1/2 164/1/2 165/1/2 166/1/2

f 167/1/2 168/1/2 169/1/2 170/1/2

f 171/1/2 172/1/2 173/1/2 174/1/2

f 175/1/2 176/1/2 177/1/2 178/1/2

f 179/1/2 180/1/2 181/1/2 182/1/2

f 183/1/2 184/1/2 185/1/2 186/1/2

f 187/1/2 188/1/2 189/1/2 190/1/2

f 191/1/2 192/1/2 193/1/2 194/1/2

f 195/1/2 196/1/2 197/1/2 198/1/2

f 199/1/2 200/1/2 201/1/2 202/1/2

f 203/1/2 204/1/2 205/1/2 206/1/2

f 207/1/2 208/1/2 209/1/2 210/1/2

f 211/1/2 212/1/2 213/1/2 214/1/2

f 215/1/2 216/1/2 217/1/2 218/1/2

f 219/1/2 220/1/2 221/1/2 222/1/2

f 223/1/2 224/1/2 225/1/2 226/1/2

f 227/1/2 228/1/2 229/1/2 230/1/2

f 231/1/2 232/1/2 233/1/2 234/1/2

f 235/1/2 236/1/2 237/1/2 238/1/2

f 176/1/2 239/1/2 240/1/2 177/1/2

f 241/1/2 159/1/2 162/1/2 242/1/2

f 243/1/2 244/1/2 245/1/2 246/1/2

f 247/1/2 248/1/2 249/1/2 250/1/2

f 251/1/2 252/1/2 253/1/2 254/1/2

f 255/1/2 243/1/2 246/1/2 256/1/2

f 257/1/2 258/1/2 259/1/2 260/1/2

f 160/1/2 261/1/2 262/1/2 161/1/2

f 263/1/2 264/1/2 265/1/2 266/1/2

f 267/1/2 268/1/2 269/1/2 270/1/2

f 271/1/2 223/1/2 226/1/2 272/1/2

f 273/1/2 191/1/2 194/1/2 274/1/2

f 188/1/2 219/1/2 222/1/2 189/1/2

f 275/1/2 199/1/2 202/1/2 276/1/2

f 277/1/2 187/1/2 190/1/2 278/1/2

f 279/1/2 280/1/2 281/1/2 282/1/2

f 283/1/2 284/1/2 285/1/2 286/1/2

f 164/1/2 287/1/2 288/1/2 165/1/2

f 289/1/2 290/1/2 291/1/2 292/1/2

f 180/1/2 195/1/2 198/1/2 181/1/2

f 293/1/2 294/1/2 295/1/2 296/1/2

f 297/1/2 298/1/2 299/1/2 300/1/2

f 301/1/2 211/1/2 214/1/2 302/1/2

f 303/1/2 304/1/2 305/1/2 306/1/2

f 307/1/2 289/1/2 292/1/2 308/1/2

f 1/1/3 102/1/3 101/1/3 2/1/3

f 252/1/3 163/1/3 166/1/3 253/1/3

f 13/1/3 309/1/3 310/1/3 14/1/3

f 309/1/3 146/1/3 145/1/3 310/1/3

f 294/1/3 311/1/3 312/1/3 295/1/3

f 311/1/3 171/1/3 174/1/3 312/1/3

f 313/1/3 175/1/3 178/1/3 314/1/3

f 315/1/3 179/1/3 182/1/3 316/1/3

f 17/1/3 84/1/3 83/1/3 18/1/3

f 248/1/3 183/1/3 186/1/3 249/1/3

f 317/1/3 318/1/3 319/1/3 320/1/3

f 321/1/3 322/1/3 323/1/3 324/1/3

f 21/1/3 325/1/3 326/1/3 22/1/3

f 29/1/3 327/1/3 328/1/3 30/1/3

f 329/1/3 203/1/3 206/1/3 330/1/3

f 331/1/3 215/1/3 218/1/3 332/1/3

f 41/1/3 315/1/3 316/1/3 42/1/3

f 51/1/3 331/1/3 332/1/3 52/1/3

f 59/1/3 32/1/3 31/1/3 60/1/3

f 73/1/3 235/1/3 238/1/3 74/1/3

f 77/1/3 329/1/3 330/1/3 78/1/3

f 333/1/3 241/1/3 242/1/3 334/1/3

f 335/1/3 313/1/3 314/1/3 336/1/3

f 81/1/3 247/1/3 250/1/3 82/1/3

f 85/1/3 321/1/3 324/1/3 86/1/3

f 337/1/3 317/1/3 320/1/3 338/1/3

f 99/1/3 251/1/3 254/1/3 100/1/3

f 268/1/3 257/1/3 260/1/3 269/1/3

f 109/1/3 120/1/3 119/1/3 110/1/3

f 117/1/3 267/1/3 270/1/3 118/1/3

f 236/1/3 271/1/3 272/1/3 237/1/3

f 121/1/3 76/1/3 75/1/3 122/1/3

f 322/1/3 273/1/3 274/1/3 323/1/3

f 172/1/3 275/1/3 276/1/3 173/1/3

f 125/1/3 16/1/3 15/1/3 126/1/3

f 200/1/3 277/1/3 278/1/3 201/1/3

f 216/1/3 279/1/3 282/1/3 217/1/3

f 204/1/3 283/1/3 286/1/3 205/1/3

f 131/1/3 333/1/3 334/1/3 132/1/3

f 318/1/3 293/1/3 296/1/3 319/1/3

f 327/1/3 301/1/3 302/1/3 328/1/3

f 143/1/3 337/1/3 338/1/3 144/1/3

f 147/1/3 335/1/3 336/1/3 148/1/3

f 149/1/3 24/1/3 23/1/3 150/1/3

f 325/1/3 307/1/3 308/1/3 326/1/3

f 153/1/3 136/1/3 135/1/3 154/1/3

f 339/1/4 340/1/4 157/1/4 156/1/4

f 303/1/4 306/1/4 340/1/4 339/1/4

f 4/1/4 3/1/4 64/1/4 63/1/4

f 12/1/4 11/1/4 169/1/4 168/1/4

f 207/1/4 210/1/4 185/1/4 184/1/4

f 341/1/4 342/1/4 343/1/4 344/1/4

f 28/1/4 27/1/4 345/1/4 346/1/4

f 347/1/4 348/1/4 349/1/4 350/1/4

f 346/1/4 345/1/4 351/1/4 352/1/4

f 350/1/4 349/1/4 193/1/4 192/1/4

f 36/1/4 35/1/4 353/1/4 354/1/4

f 355/1/4 356/1/4 197/1/4 196/1/4

f 357/1/4 358/1/4 209/1/4 208/1/4

f 167/1/4 170/1/4 213/1/4 212/1/4

f 255/1/4 256/1/4 221/1/4 220/1/4

f 40/1/4 39/1/4 359/1/4 360/1/4

f 360/1/4 359/1/4 225/1/4 224/1/4

f 46/1/4 45/1/4 229/1/4 228/1/4

f 361/1/4 362/1/4 34/1/4 33/1/4

f 50/1/4 49/1/4 348/1/4 347/1/4

f 58/1/4 57/1/4 363/1/4 364/1/4

f 364/1/4 363/1/4 233/1/4 232/1/4

f 62/1/4 61/1/4 10/1/4 9/1/4

f 66/1/4 65/1/4 365/1/4 366/1/4

f 68/1/4 67/1/4 138/1/4 137/1/4

f 72/1/4 71/1/4 362/1/4 361/1/4

f 352/1/4 351/1/4 240/1/4 239/1/4

f 155/1/4 158/1/4 245/1/4 244/1/4

f 94/1/4 93/1/4 70/1/4 69/1/4

f 104/1/4 103/1/4 130/1/4 129/1/4

f 106/1/4 105/1/4 44/1/4 43/1/4

f 108/1/4 107/1/4 356/1/4 355/1/4

f 231/1/4 234/1/4 259/1/4 258/1/4

f 367/1/4 368/1/4 262/1/4 261/1/4

f 112/1/4 111/1/4 368/1/4 367/1/4

f 116/1/4 115/1/4 265/1/4 264/1/4

f 124/1/4 123/1/4 38/1/4 37/1/4

f 297/1/4 300/1/4 281/1/4 280/1/4

f 227/1/4 230/1/4 285/1/4 284/1/4

f 366/1/4 365/1/4 288/1/4 287/1/4

f 263/1/4 266/1/4 291/1/4 290/1/4

f 134/1/4 133/1/4 358/1/4 357/1/4

f 354/1/4 353/1/4 342/1/4 341/1/4

f 140/1/4 139/1/4 299/1/4 298/1/4

f 152/1/4 151/1/4 114/1/4 113/1/4

f 344/1/4 343/1/4 305/1/4 304/1/4

f 369/1/5 339/1/5 156/1/5 155/1/5

f 370/1/5 371/1/5 160/1/5 159/1/5

f 372/2/5 373/2/5 374/2/5 375/2/5

f 376/1/5 69/1/5 377/1/5 378/1/5

f 379/1/5 303/1/5 339/1/5 369/1/5

f 380/1/5 369/1/5 155/1/5 381/1/5

f 1/1/5 4/1/5 63/1/5 102/1/5

f 102/1/5 63/1/5 382/1/5 252/1/5

f 252/1/5 382/1/5 164/1/5 163/1/5

f 5/1/5 8/1/5 383/1/5 384/1/5

f 9/1/5 12/1/5 168/1/5 167/1/5

f 13/1/5 16/1/5 385/1/5 309/1/5

f 309/1/5 385/1/5 386/1/5 146/1/5

f 146/1/5 386/1/5 387/1/5 388/1/5

f 388/1/5 387/1/5 389/1/5 390/1/5

f 390/1/5 389/1/5 391/1/5 392/1/5

f 392/1/5 391/1/5 393/1/5 294/1/5

f 294/1/5 393/1/5 394/1/5 311/1/5

f 311/1/5 394/1/5 172/1/5 171/1/5

f 313/1/5 395/1/5 176/1/5 175/1/5

f 315/1/5 384/1/5 180/1/5 179/1/5

f 17/1/5 20/1/5 396/1/5 84/1/5

f 84/1/5 396/1/5 207/1/5 248/1/5

f 248/1/5 207/1/5 184/1/5 183/1/5

f 317/1/5 390/1/5 392/1/5 318/1/5

f 321/1/5 397/1/5 398/1/5 322/1/5

f 399/1/5 341/1/5 344/1/5 400/1/5

f 21/1/5 24/1/5 401/1/5 325/1/5

f 25/1/5 28/1/5 346/1/5 402/1/5

f 403/2/5 404/2/5 372/2/5 405/2/5

f 406/1/5 407/1/5 408/1/5 409/1/5

f 29/1/5 32/1/5 410/1/5 327/1/5

f 411/1/5 129/1/5 412/1/5 413/1/5

f 397/1/5 347/1/5 350/1/5 398/1/5

f 414/1/5 415/1/5 416/1/5 417/1/5

f 418/1/5 419/1/5 188/1/5 187/1/5

f 373/1/5 399/1/5 400/1/5 374/1/5

f 402/1/5 346/1/5 352/1/5 395/1/5

f 398/1/5 350/1/5 192/1/5 191/1/5

f 33/1/5 36/1/5 354/1/5 420/1/5

f 383/1/5 355/1/5 196/1/5 195/1/5

f 421/1/5 422/1/5 423/1/5 424/1/5

f 412/1/5 376/1/5 378/1/5 415/1/5

f 425/1/5 417/1/5 426/1/5 427/1/5

f 428/1/5 406/1/5 409/1/5 429/1/5

f 430/1/5 431/1/5 432/1/5 404/1/5

f 433/1/5 434/1/5 200/1/5 199/1/5

f 435/1/5 436/1/5 434/1/5 433/1/5

f 437/1/5 438/1/5 436/1/5 435/1/5

f 439/3/5 440/3/5 438/3/5 437/3/5

f 441/3/5 442/3/5 440/3/5 439/3/5

f 443/5/5 444/5/5 445/5/5 446/5/5

f 329/1/5 447/1/5 204/1/5 203/1/5

f 396/1/5 357/1/5 208/1/5 207/1/5

f 426/1/5 403/1/5 405/1/5 448/1/5

f 410/1/5 167/1/5 212/1/5 211/1/5

f 331/1/5 449/1/5 216/1/5 215/1/5

f 450/1/5 451/1/5 452/1/5 419/1/5

f 452/1/5 255/1/5 220/1/5 219/1/5

f 37/1/5 40/1/5 360/1/5 453/1/5

f 453/1/5 360/1/5 224/1/5 223/1/5

f 41/1/5 5/1/5 384/1/5 315/1/5

f 408/5/5 454/5/5 425/5/5 455/5/5

f 43/1/5 46/1/5 228/1/5 227/1/5

f 377/1/5 361/1/5 33/1/5 431/1/5

f 47/1/5 50/1/5 347/1/5 397/1/5

f 51/1/5 54/1/5 449/1/5 331/1/5

f 55/1/5 58/1/5 364/1/5 456/1/5

f 456/1/5 364/1/5 232/1/5 231/1/5

f 427/1/5 426/1/5 448/1/5 422/1/5

f 417/1/5 416/1/5 403/1/5 426/1/5

f 416/2/5 430/2/5 404/2/5 403/2/5

f 59/1/5 62/1/5 9/1/5 32/1/5

f 63/1/5 66/1/5 366/1/5 382/1/5

f 54/1/5 68/1/5 137/1/5 449/1/5

f 69/1/5 72/1/5 361/1/5 377/1/5

f 73/1/5 76/1/5 236/1/5 235/1/5

f 395/1/5 352/1/5 239/1/5 176/1/5

f 77/1/5 80/1/5 447/1/5 329/1/5

f 457/3/5 458/3/5 459/3/5 460/3/5

f 460/3/5 459/3/5 442/3/5 441/3/5

f 429/1/5 409/1/5 458/1/5 457/1/5

f 333/1/5 370/1/5 159/1/5 241/1/5

f 335/1/5 402/1/5 395/1/5 313/1/5

f 461/5/5 443/5/5 446/5/5 462/5/5

f 463/1/5 464/1/5 465/1/5 407/1/5

f 381/1/5 155/1/5 244/1/5 243/1/5

f 466/1/5 427/1/5 422/1/5 421/1/5

f 81/1/5 84/1/5 248/1/5 247/1/5

f 85/1/5 47/1/5 397/1/5 321/1/5

f 446/4/5 445/4/5 451/4/5 450/4/5

f 87/1/5 90/1/5 411/1/5 464/1/5

f 136/1/5 463/1/5 407/1/5 406/1/5

f 337/1/5 388/1/5 390/1/5 317/1/5

f 91/1/5 94/1/5 69/1/5 376/1/5

f 423/1/5 467/1/5 444/1/5 443/1/5

f 95/1/5 98/1/5 371/1/5 370/1/5

f 24/1/5 113/1/5 263/1/5 401/1/5

f 468/2/5 375/2/5 469/2/5 470/2/5

f 393/3/5 437/3/5 435/3/5 394/3/5

f 448/1/5 405/1/5 468/1/5 467/1/5

f 99/1/5 102/1/5 252/1/5 251/1/5

f 90/1/5 104/1/5 129/1/5 411/1/5

f 432/1/5 420/1/5 399/1/5 373/1/5

f 80/1/5 106/1/5 43/1/5 447/1/5

f 451/1/5 471/1/5 255/1/5 452/1/5

f 471/1/5 381/1/5 243/1/5 255/1/5

f 424/1/5 423/1/5 443/1/5 461/1/5

f 472/1/5 380/1/5 381/1/5 471/1/5

f 8/1/5 108/1/5 355/1/5 383/1/5

f 375/1/5 374/1/5 379/1/5 469/1/5

f 268/1/5 231/1/5 258/1/5 257/1/5

f 120/1/5 456/1/5 231/1/5 268/1/5

f 109/1/5 55/1/5 456/1/5 120/1/5

f 413/1/5 412/1/5 415/1/5 414/1/5

f 32/1/5 9/1/5 167/1/5 410/1/5

f 371/1/5 367/1/5 261/1/5 160/1/5

f 98/1/5 112/1/5 367/1/5 371/1/5

f 113/1/5 116/1/5 264/1/5 263/1/5

f 117/1/5 120/1/5 268/1/5 267/1/5

f 236/1/5 453/1/5 223/1/5 271/1/5

f 76/1/5 37/1/5 453/1/5 236/1/5

f 121/1/5 124/1/5 37/1/5 76/1/5

f 322/1/5 398/1/5 191/1/5 273/1/5

f 419/1/5 452/1/5 219/1/5 188/1/5

f 172/1/5 433/1/5 199/1/5 275/1/5

f 449/1/5 137/1/5 297/1/5 216/1/5

f 125/1/5 128/1/5 428/1/5 16/1/5

f 387/1/5 460/1/5 441/1/5 389/1/5

f 378/1/5 377/1/5 431/1/5 430/1/5

f 465/4/5 413/4/5 414/4/5 454/4/5

f 473/1/5 450/1/5 419/1/5 418/1/5

f 409/1/5 408/1/5 455/1/5 458/1/5

f 458/1/5 455/1/5 466/1/5 459/1/5

f 459/1/5 466/1/5 421/1/5 442/1/5

f 442/1/5 421/1/5 424/1/5 440/1/5

f 440/1/5 424/1/5 461/1/5 438/1/5

f 438/1/5 461/1/5 462/1/5 436/1/5

f 436/1/5 462/1/5 473/1/5 434/1/5

f 434/1/5 473/1/5 418/1/5 200/1/5

f 200/1/5 418/1/5 187/1/5 277/1/5

f 455/1/5 425/1/5 427/1/5 466/1/5

f 462/4/5 446/4/5 450/4/5 473/4/5

f 216/1/5 297/1/5 280/1/5 279/1/5

f 129/1/5 91/1/5 376/1/5 412/1/5

f 447/1/5 43/1/5 227/1/5 204/1/5

f 467/1/5 468/1/5 470/1/5 444/1/5

f 204/1/5 227/1/5 284/1/5 283/1/5

f 470/1/5 469/1/5 380/1/5 472/1/5

f 404/2/5 432/2/5 373/2/5 372/2/5

f 382/1/5 366/1/5 287/1/5 164/1/5

f 401/1/5 263/1/5 290/1/5 289/1/5

f 131/1/5 95/1/5 370/1/5 333/1/5

f 431/1/5 33/1/5 420/1/5 432/1/5

f 386/3/5 457/3/5 460/3/5 387/3/5

f 445/1/5 472/1/5 471/1/5 451/1/5

f 391/3/5 439/3/5 437/3/5 393/3/5

f 20/1/5 134/1/5 357/1/5 396/1/5

f 415/1/5 378/1/5 430/1/5 416/1/5

f 394/1/5 435/1/5 433/1/5 172/1/5

f 389/1/5 441/1/5 439/1/5 391/1/5

f 16/1/5 428/1/5 429/1/5 385/1/5

f 128/1/5 136/1/5 406/1/5 428/1/5

f 384/1/5 383/1/5 195/1/5 180/1/5

f 385/3/5 429/3/5 457/3/5 386/3/5

f 318/1/5 392/1/5 294/1/5 293/1/5

f 454/5/5 414/5/5 417/5/5 425/5/5

f 420/1/5 354/1/5 341/1/5 399/1/5

f 137/1/5 140/1/5 298/1/5 297/1/5

f 327/1/5 410/1/5 211/1/5 301/1/5

f 464/1/5 411/1/5 413/1/5 465/1/5

f 444/1/5 470/1/5 472/1/5 445/1/5

f 141/1/5 87/1/5 464/1/5 463/1/5

f 143/1/5 146/1/5 388/1/5 337/1/5

f 405/2/5 372/2/5 375/2/5 468/2/5

f 422/1/5 448/1/5 467/1/5 423/1/5

f 147/1/5 25/1/5 402/1/5 335/1/5

f 149/1/5 152/1/5 113/1/5 24/1/5

f 374/1/5 400/1/5 303/1/5 379/1/5

f 400/1/5 344/1/5 304/1/5 303/1/5

f 407/4/5 465/4/5 454/4/5 408/4/5

f 325/1/5 401/1/5 289/1/5 307/1/5

f 469/1/5 379/1/5 369/1/5 380/1/5

f 153/1/5 141/1/5 463/1/5 136/1/5

f 474/1/6 158/1/6 157/1/6 340/1/6

f 475/1/6 162/1/6 161/1/6 476/1/6

f 477/2/6 478/2/6 479/2/6 480/2/6

f 481/1/6 482/1/6 483/1/6 70/1/6

f 484/1/6 474/1/6 340/1/6 306/1/6

f 485/1/6 486/1/6 158/1/6 474/1/6

f 2/1/6 101/1/6 64/1/6 3/1/6

f 101/1/6 253/1/6 487/1/6 64/1/6

f 253/1/6 166/1/6 165/1/6 487/1/6

f 6/1/6 488/1/6 489/1/6 7/1/6

f 10/1/6 170/1/6 169/1/6 11/1/6

f 14/1/6 310/1/6 490/1/6 15/1/6

f 310/1/6 145/1/6 491/1/6 490/1/6

f 145/1/6 492/1/6 493/1/6 491/1/6

f 492/1/6 494/1/6 495/1/6 493/1/6

f 494/1/6 496/1/6 497/1/6 495/1/6

f 496/1/6 295/1/6 498/1/6 497/1/6

f 295/1/6 312/1/6 499/1/6 498/1/6

f 312/1/6 174/1/6 173/1/6 499/1/6

f 314/1/6 178/1/6 177/1/6 500/1/6

f 316/1/6 182/1/6 181/1/6 488/1/6

f 18/1/6 83/1/6 501/1/6 19/1/6

f 83/1/6 249/1/6 210/1/6 501/1/6

f 249/1/6 186/1/6 185/1/6 210/1/6

f 320/1/6 319/1/6 496/1/6 494/1/6

f 324/1/6 323/1/6 502/1/6 503/1/6

f 504/1/6 505/1/6 343/1/6 342/1/6

f 22/1/6 326/1/6 506/1/6 23/1/6

f 26/1/6 507/1/6 345/1/6 27/1/6

f 508/2/6 509/2/6 477/2/6 510/2/6

f 511/1/6 512/1/6 513/1/6 514/1/6

f 30/1/6 328/1/6 515/1/6 31/1/6

f 516/1/6 517/1/6 518/1/6 130/1/6

f 503/1/6 502/1/6 349/1/6 348/1/6

f 519/1/6 520/1/6 521/1/6 522/1/6

f 523/1/6 190/1/6 189/1/6 524/1/6

f 480/1/6 479/1/6 505/1/6 504/1/6

f 507/1/6 500/1/6 351/1/6 345/1/6

f 502/1/6 194/1/6 193/1/6 349/1/6

f 34/1/6 525/1/6 353/1/6 35/1/6

f 489/1/6 198/1/6 197/1/6 356/1/6

f 526/1/6 527/1/6 528/1/6 529/1/6

f 518/1/6 522/1/6 482/1/6 481/1/6

f 530/1/6 531/1/6 532/1/6 520/1/6

f 533/1/6 534/1/6 512/1/6 511/1/6

f 535/1/6 510/1/6 536/1/6 537/1/6

f 538/1/6 202/1/6 201/1/6 539/1/6

f 540/1/6 538/1/6 539/1/6 541/1/6

f 542/1/6 540/1/6 541/1/6 543/1/6

f 544/3/6 542/3/6 543/3/6 545/3/6

f 546/3/6 544/3/6 545/3/6 547/3/6

f 548/5/6 549/5/6 550/5/6 551/5/6

f 330/1/6 206/1/6 205/1/6 552/1/6

f 501/1/6 210/1/6 209/1/6 358/1/6

f 532/1/6 553/1/6 509/1/6 508/1/6

f 515/1/6 214/1/6 213/1/6 170/1/6

f 332/1/6 218/1/6 217/1/6 554/1/6

f 555/1/6 524/1/6 556/1/6 557/1/6

f 556/1/6 222/1/6 221/1/6 256/1/6

f 38/1/6 558/1/6 359/1/6 39/1/6

f 558/1/6 226/1/6 225/1/6 359/1/6

f 42/1/6 316/1/6 488/1/6 6/1/6

f 513/5/6 559/5/6 530/5/6 560/5/6

f 44/1/6 230/1/6 229/1/6 45/1/6

f 483/1/6 537/1/6 34/1/6 362/1/6

f 48/1/6 503/1/6 348/1/6 49/1/6

f 52/1/6 332/1/6 554/1/6 53/1/6

f 56/1/6 561/1/6 363/1/6 57/1/6

f 561/1/6 234/1/6 233/1/6 363/1/6

f 531/1/6 529/1/6 553/1/6 532/1/6

f 520/1/6 532/1/6 508/1/6 521/1/6

f 521/2/6 508/2/6 510/2/6 535/2/6

f 60/1/6 31/1/6 10/1/6 61/1/6

f 64/1/6 487/1/6 365/1/6 65/1/6

f 53/1/6 554/1/6 138/1/6 67/1/6

f 70/1/6 483/1/6 362/1/6 71/1/6

f 74/1/6 238/1/6 237/1/6 75/1/6

f 500/1/6 177/1/6 240/1/6 351/1/6

f 78/1/6 330/1/6 552/1/6 79/1/6

f 562/3/6 563/3/6 564/3/6 565/3/6

f 563/3/6 546/3/6 547/3/6 564/3/6

f 534/1/6 562/1/6 565/1/6 512/1/6

f 334/1/6 242/1/6 162/1/6 475/1/6

f 336/1/6 314/1/6 500/1/6 507/1/6

f 566/5/6 567/5/6 549/5/6 548/5/6

f 568/1/6 514/1/6 569/1/6 570/1/6

f 486/1/6 246/1/6 245/1/6 158/1/6

f 571/1/6 526/1/6 529/1/6 531/1/6

f 82/1/6 250/1/6 249/1/6 83/1/6

f 86/1/6 324/1/6 503/1/6 48/1/6

f 549/4/6 555/4/6 557/4/6 550/4/6

f 88/1/6 570/1/6 516/1/6 89/1/6

f 135/1/6 511/1/6 514/1/6 568/1/6

f 338/1/6 320/1/6 494/1/6 492/1/6

f 92/1/6 481/1/6 70/1/6 93/1/6

f 528/1/6 548/1/6 551/1/6 572/1/6

f 96/1/6 475/1/6 476/1/6 97/1/6

f 23/1/6 506/1/6 266/1/6 114/1/6

f 573/2/6 574/2/6 575/2/6 478/2/6

f 498/3/6 499/3/6 540/3/6 542/3/6

f 553/1/6 572/1/6 573/1/6 509/1/6

f 100/1/6 254/1/6 253/1/6 101/1/6

f 89/1/6 516/1/6 130/1/6 103/1/6

f 536/1/6 480/1/6 504/1/6 525/1/6

f 79/1/6 552/1/6 44/1/6 105/1/6

f 557/1/6 556/1/6 256/1/6 576/1/6

f 576/1/6 256/1/6 246/1/6 486/1/6

f 527/1/6 566/1/6 548/1/6 528/1/6

f 577/1/6 576/1/6 486/1/6 485/1/6

f 7/1/6 489/1/6 356/1/6 107/1/6

f 478/1/6 575/1/6 484/1/6 479/1/6

f 269/1/6 260/1/6 259/1/6 234/1/6

f 119/1/6 269/1/6 234/1/6 561/1/6

f 110/1/6 119/1/6 561/1/6 56/1/6

f 517/1/6 519/1/6 522/1/6 518/1/6

f 31/1/6 515/1/6 170/1/6 10/1/6

f 476/1/6 161/1/6 262/1/6 368/1/6

f 97/1/6 476/1/6 368/1/6 111/1/6

f 114/1/6 266/1/6 265/1/6 115/1/6

f 118/1/6 270/1/6 269/1/6 119/1/6

f 237/1/6 272/1/6 226/1/6 558/1/6

f 75/1/6 237/1/6 558/1/6 38/1/6

f 122/1/6 75/1/6 38/1/6 123/1/6

f 323/1/6 274/1/6 194/1/6 502/1/6

f 524/1/6 189/1/6 222/1/6 556/1/6

f 173/1/6 276/1/6 202/1/6 538/1/6

f 554/1/6 217/1/6 300/1/6 138/1/6

f 126/1/6 15/1/6 533/1/6 127/1/6

f 493/1/6 495/1/6 546/1/6 563/1/6

f 482/1/6 535/1/6 537/1/6 483/1/6

f 569/4/6 560/4/6 519/4/6 517/4/6

f 578/1/6 523/1/6 524/1/6 555/1/6

f 512/1/6 565/1/6 559/1/6 513/1/6

f 565/1/6 564/1/6 571/1/6 559/1/6

f 564/1/6 547/1/6 526/1/6 571/1/6

f 547/1/6 545/1/6 527/1/6 526/1/6

f 545/1/6 543/1/6 566/1/6 527/1/6

f 543/1/6 541/1/6 567/1/6 566/1/6

f 541/1/6 539/1/6 578/1/6 567/1/6

f 539/1/6 201/1/6 523/1/6 578/1/6

f 201/1/6 278/1/6 190/1/6 523/1/6

f 559/1/6 571/1/6 531/1/6 530/1/6

f 567/4/6 578/4/6 555/4/6 549/4/6

f 217/1/6 282/1/6 281/1/6 300/1/6

f 130/1/6 518/1/6 481/1/6 92/1/6

f 552/1/6 205/1/6 230/1/6 44/1/6

f 572/1/6 551/1/6 574/1/6 573/1/6

f 205/1/6 286/1/6 285/1/6 230/1/6

f 574/1/6 577/1/6 485/1/6 575/1/6

f 510/2/6 477/2/6 480/2/6 536/2/6

f 487/1/6 165/1/6 288/1/6 365/1/6

f 506/1/6 292/1/6 291/1/6 266/1/6

f 132/1/6 334/1/6 475/1/6 96/1/6

f 537/1/6 536/1/6 525/1/6 34/1/6

f 491/3/6 493/3/6 563/3/6 562/3/6

f 550/1/6 557/1/6 576/1/6 577/1/6

f 497/3/6 498/3/6 542/3/6 544/3/6

f 19/1/6 501/1/6 358/1/6 133/1/6

f 522/1/6 521/1/6 535/1/6 482/1/6

f 499/1/6 173/1/6 538/1/6 540/1/6

f 495/1/6 497/1/6 544/1/6 546/1/6

f 15/1/6 490/1/6 534/1/6 533/1/6

f 127/1/6 533/1/6 511/1/6 135/1/6

f 488/1/6 181/1/6 198/1/6 489/1/6

f 490/3/6 491/3/6 562/3/6 534/3/6

f 319/1/6 296/1/6 295/1/6 496/1/6

f 560/5/6 530/5/6 520/5/6 519/5/6

f 525/1/6 504/1/6 342/1/6 353/1/6

f 138/1/6 300/1/6 299/1/6 139/1/6

f 328/1/6 302/1/6 214/1/6 515/1/6

f 570/1/6 569/1/6 517/1/6 516/1/6

f 551/1/6 550/1/6 577/1/6 574/1/6

f 142/1/6 568/1/6 570/1/6 88/1/6

f 144/1/6 338/1/6 492/1/6 145/1/6

f 509/2/6 573/2/6 478/2/6 477/2/6

f 529/1/6 528/1/6 572/1/6 553/1/6

f 148/1/6 336/1/6 507/1/6 26/1/6

f 150/1/6 23/1/6 114/1/6 151/1/6

f 479/1/6 484/1/6 306/1/6 505/1/6

f 505/1/6 306/1/6 305/1/6 343/1/6

f 514/4/6 513/4/6 560/4/6 569/4/6

f 326/1/6 308/1/6 292/1/6 506/1/6

f 575/1/6 485/1/6 474/1/6 484/1/6

f 154/1/6 135/1/6 568/1/6 142/1/6

# numNormals 6
# numTexCoords 5
# numVerts 578
# numFaces 552
