# MagicaVoxel @ ephtracy

# material
mtllib 1-1.mtl

# normals
vn -1 0 0
vn 1 0 0
vn 0 0 1
vn 0 0 -1
vn 0 -1 0
vn 0 1 0

# texcoords
vt 0.0683594 0.5
vt 0.958984 0.5
vt 0.994141 0.5

# verts
v -5 0 5
v -5 1 5
v -5 1 4
v -5 0 4
v -5 1 3
v -5 0 3
v -5 1 2
v -5 0 2
v -5 1 1
v -5 0 1
v -5 1 -0
v -5 0 -0
v -5 1 -1
v -5 0 -1
v -5 1 -2
v -5 0 -2
v -5 1 -3
v -5 0 -3
v -5 1 -4
v -5 0 -4
v -5 1 -5
v -5 0 -5
v -5 2 5
v -5 2 4
v -5 2 3
v -5 2 2
v -5 2 1
v -5 2 -0
v -5 2 -1
v -5 2 -2
v -5 2 -3
v -5 2 -4
v -5 2 -5
v 5 0 5
v 5 0 4
v 5 1 4
v 5 1 5
v 5 0 3
v 5 1 3
v 5 0 2
v 5 1 2
v 5 0 1
v 5 1 1
v 5 0 -0
v 5 1 -0
v 5 0 -1
v 5 1 -1
v 5 0 -2
v 5 1 -2
v 5 0 -3
v 5 1 -3
v 5 0 -4
v 5 1 -4
v 5 0 -5
v 5 1 -5
v 5 2 4
v 5 2 5
v 5 2 3
v 5 2 2
v 5 2 1
v 5 2 -0
v 5 2 -1
v 5 2 -2
v 5 2 -3
v 5 2 -4
v 5 2 -5
v -4 0 5
v -4 1 5
v -3 0 5
v -3 1 5
v -2 0 5
v -2 1 5
v -1 0 5
v -1 1 5
v 0 0 5
v 0 1 5
v 1 0 5
v 1 1 5
v 2 0 5
v 2 1 5
v 3 0 5
v 3 1 5
v 4 0 5
v 4 1 5
v -4 2 5
v -3 2 5
v -2 2 5
v -1 2 5
v 0 2 5
v 1 2 5
v 2 2 5
v 3 2 5
v 4 2 5
v -4 1 -5
v -4 0 -5
v -3 1 -5
v -3 0 -5
v -2 1 -5
v -2 0 -5
v -1 1 -5
v -1 0 -5
v 0 1 -5
v 0 0 -5
v 1 1 -5
v 1 0 -5
v 2 1 -5
v 2 0 -5
v 3 1 -5
v 3 0 -5
v 4 1 -5
v 4 0 -5
v -4 2 -5
v -3 2 -5
v -2 2 -5
v -1 2 -5
v 0 2 -5
v 1 2 -5
v 2 2 -5
v 3 2 -5
v 4 2 -5
v -4 0 4
v -3 0 4
v -2 0 4
v -1 0 4
v 0 0 4
v 1 0 4
v 2 0 4
v 3 0 4
v 4 0 4
v -4 0 3
v -3 0 3
v -2 0 3
v -1 0 3
v 0 0 3
v 1 0 3
v 2 0 3
v 3 0 3
v 4 0 3
v -4 0 2
v -3 0 2
v -2 0 2
v -1 0 2
v 0 0 2
v 1 0 2
v 2 0 2
v 3 0 2
v 4 0 2
v -4 0 1
v -3 0 1
v -2 0 1
v -1 0 1
v 0 0 1
v 1 0 1
v 2 0 1
v 3 0 1
v 4 0 1
v -4 0 -0
v -3 0 -0
v -2 0 -0
v -1 0 -0
v 0 0 -0
v 1 0 -0
v 2 0 -0
v 3 0 -0
v 4 0 -0
v -4 0 -1
v -3 0 -1
v -2 0 -1
v -1 0 -1
v 0 0 -1
v 1 0 -1
v 2 0 -1
v 3 0 -1
v 4 0 -1
v -4 0 -2
v -3 0 -2
v -2 0 -2
v -1 0 -2
v 0 0 -2
v 1 0 -2
v 2 0 -2
v 3 0 -2
v 4 0 -2
v -4 0 -3
v -3 0 -3
v -2 0 -3
v -1 0 -3
v 0 0 -3
v 1 0 -3
v 2 0 -3
v 3 0 -3
v 4 0 -3
v -4 0 -4
v -3 0 -4
v -2 0 -4
v -1 0 -4
v 0 0 -4
v 1 0 -4
v 2 0 -4
v 3 0 -4
v 4 0 -4
v -4 2 4
v -3 2 4
v -2 2 4
v -1 2 4
v 0 2 4
v 1 2 4
v 2 2 4
v 3 2 4
v 4 2 4
v -4 2 3
v -3 2 3
v -2 2 3
v -1 2 3
v 0 2 3
v 1 2 3
v 2 2 3
v 3 2 3
v 4 2 3
v -4 2 2
v -3 2 2
v -2 2 2
v -1 2 2
v 0 2 2
v 1 2 2
v 2 2 2
v 3 2 2
v 4 2 2
v -4 2 1
v -3 2 1
v -2 2 1
v -1 2 1
v 0 2 1
v 1 2 1
v 2 2 1
v 3 2 1
v 4 2 1
v -4 2 -0
v -3 2 -0
v -2 2 -0
v -1 2 -0
v 0 2 -0
v 1 2 -0
v 2 2 -0
v 3 2 -0
v 4 2 -0
v -4 2 -1
v -3 2 -1
v -2 2 -1
v -1 2 -1
v 0 2 -1
v 1 2 -1
v 2 2 -1
v 3 2 -1
v 4 2 -1
v -4 2 -2
v -3 2 -2
v -2 2 -2
v -1 2 -2
v 0 2 -2
v 1 2 -2
v 2 2 -2
v 3 2 -2
v 4 2 -2
v -4 2 -3
v -3 2 -3
v -2 2 -3
v -1 2 -3
v 0 2 -3
v 1 2 -3
v 2 2 -3
v 3 2 -3
v 4 2 -3
v -4 2 -4
v -3 2 -4
v -2 2 -4
v -1 2 -4
v 0 2 -4
v 1 2 -4
v 2 2 -4
v 3 2 -4
v 4 2 -4

# faces

usemtl palette

f 1/1/1 2/1/1 3/1/1 4/1/1

f 4/1/1 3/1/1 5/1/1 6/1/1

f 6/1/1 5/1/1 7/1/1 8/1/1

f 8/1/1 7/1/1 9/1/1 10/1/1

f 10/1/1 9/1/1 11/1/1 12/1/1

f 12/1/1 11/1/1 13/1/1 14/1/1

f 14/1/1 13/1/1 15/1/1 16/1/1

f 16/1/1 15/1/1 17/1/1 18/1/1

f 18/1/1 17/1/1 19/1/1 20/1/1

f 20/1/1 19/1/1 21/1/1 22/1/1

f 2/3/1 23/3/1 24/3/1 3/3/1

f 3/3/1 24/3/1 25/3/1 5/3/1

f 5/3/1 25/3/1 26/3/1 7/3/1

f 7/3/1 26/3/1 27/3/1 9/3/1

f 9/3/1 27/3/1 28/3/1 11/3/1

f 11/3/1 28/3/1 29/3/1 13/3/1

f 13/3/1 29/3/1 30/3/1 15/3/1

f 15/3/1 30/3/1 31/3/1 17/3/1

f 17/3/1 31/3/1 32/3/1 19/3/1

f 19/3/1 32/3/1 33/3/1 21/3/1

f 34/1/2 35/1/2 36/1/2 37/1/2

f 35/1/2 38/1/2 39/1/2 36/1/2

f 38/1/2 40/1/2 41/1/2 39/1/2

f 40/1/2 42/1/2 43/1/2 41/1/2

f 42/1/2 44/1/2 45/1/2 43/1/2

f 44/1/2 46/1/2 47/1/2 45/1/2

f 46/1/2 48/1/2 49/1/2 47/1/2

f 48/1/2 50/1/2 51/1/2 49/1/2

f 50/1/2 52/1/2 53/1/2 51/1/2

f 52/1/2 54/1/2 55/1/2 53/1/2

f 37/3/2 36/3/2 56/3/2 57/3/2

f 36/3/2 39/3/2 58/3/2 56/3/2

f 39/3/2 41/3/2 59/3/2 58/3/2

f 41/3/2 43/3/2 60/3/2 59/3/2

f 43/3/2 45/3/2 61/3/2 60/3/2

f 45/3/2 47/3/2 62/3/2 61/3/2

f 47/3/2 49/3/2 63/3/2 62/3/2

f 49/3/2 51/3/2 64/3/2 63/3/2

f 51/3/2 53/3/2 65/3/2 64/3/2

f 53/3/2 55/3/2 66/3/2 65/3/2

f 1/1/3 67/1/3 68/1/3 2/1/3

f 67/1/3 69/1/3 70/1/3 68/1/3

f 69/1/3 71/1/3 72/1/3 70/1/3

f 71/1/3 73/1/3 74/1/3 72/1/3

f 73/1/3 75/1/3 76/1/3 74/1/3

f 75/1/3 77/1/3 78/1/3 76/1/3

f 77/1/3 79/1/3 80/1/3 78/1/3

f 79/1/3 81/1/3 82/1/3 80/1/3

f 81/1/3 83/1/3 84/1/3 82/1/3

f 83/1/3 34/1/3 37/1/3 84/1/3

f 2/3/3 68/3/3 85/3/3 23/3/3

f 68/3/3 70/3/3 86/3/3 85/3/3

f 70/3/3 72/3/3 87/3/3 86/3/3

f 72/3/3 74/3/3 88/3/3 87/3/3

f 74/3/3 76/3/3 89/3/3 88/3/3

f 76/3/3 78/3/3 90/3/3 89/3/3

f 78/3/3 80/3/3 91/3/3 90/3/3

f 80/3/3 82/3/3 92/3/3 91/3/3

f 82/3/3 84/3/3 93/3/3 92/3/3

f 84/3/3 37/3/3 57/3/3 93/3/3

f 22/1/4 21/1/4 94/1/4 95/1/4

f 95/1/4 94/1/4 96/1/4 97/1/4

f 97/1/4 96/1/4 98/1/4 99/1/4

f 99/1/4 98/1/4 100/1/4 101/1/4

f 101/1/4 100/1/4 102/1/4 103/1/4

f 103/1/4 102/1/4 104/1/4 105/1/4

f 105/1/4 104/1/4 106/1/4 107/1/4

f 107/1/4 106/1/4 108/1/4 109/1/4

f 109/1/4 108/1/4 110/1/4 111/1/4

f 111/1/4 110/1/4 55/1/4 54/1/4

f 21/3/4 33/3/4 112/3/4 94/3/4

f 94/3/4 112/3/4 113/3/4 96/3/4

f 96/3/4 113/3/4 114/3/4 98/3/4

f 98/3/4 114/3/4 115/3/4 100/3/4

f 100/3/4 115/3/4 116/3/4 102/3/4

f 102/3/4 116/3/4 117/3/4 104/3/4

f 104/3/4 117/3/4 118/3/4 106/3/4

f 106/3/4 118/3/4 119/3/4 108/3/4

f 108/3/4 119/3/4 120/3/4 110/3/4

f 110/3/4 120/3/4 66/3/4 55/3/4

f 1/1/5 4/1/5 121/1/5 67/1/5

f 67/1/5 121/1/5 122/1/5 69/1/5

f 69/1/5 122/1/5 123/1/5 71/1/5

f 71/1/5 123/1/5 124/1/5 73/1/5

f 73/1/5 124/1/5 125/1/5 75/1/5

f 75/1/5 125/1/5 126/1/5 77/1/5

f 77/1/5 126/1/5 127/1/5 79/1/5

f 79/1/5 127/1/5 128/1/5 81/1/5

f 81/1/5 128/1/5 129/1/5 83/1/5

f 83/1/5 129/1/5 35/1/5 34/1/5

f 4/1/5 6/1/5 130/1/5 121/1/5

f 121/1/5 130/1/5 131/1/5 122/1/5

f 122/1/5 131/1/5 132/1/5 123/1/5

f 123/1/5 132/1/5 133/1/5 124/1/5

f 124/1/5 133/1/5 134/1/5 125/1/5

f 125/1/5 134/1/5 135/1/5 126/1/5

f 126/1/5 135/1/5 136/1/5 127/1/5

f 127/1/5 136/1/5 137/1/5 128/1/5

f 128/1/5 137/1/5 138/1/5 129/1/5

f 129/1/5 138/1/5 38/1/5 35/1/5

f 6/1/5 8/1/5 139/1/5 130/1/5

f 130/1/5 139/1/5 140/1/5 131/1/5

f 131/1/5 140/1/5 141/1/5 132/1/5

f 132/1/5 141/1/5 142/1/5 133/1/5

f 133/1/5 142/1/5 143/1/5 134/1/5

f 134/1/5 143/1/5 144/1/5 135/1/5

f 135/1/5 144/1/5 145/1/5 136/1/5

f 136/1/5 145/1/5 146/1/5 137/1/5

f 137/1/5 146/1/5 147/1/5 138/1/5

f 138/1/5 147/1/5 40/1/5 38/1/5

f 8/1/5 10/1/5 148/1/5 139/1/5

f 139/1/5 148/1/5 149/1/5 140/1/5

f 140/1/5 149/1/5 150/1/5 141/1/5

f 141/1/5 150/1/5 151/1/5 142/1/5

f 142/1/5 151/1/5 152/1/5 143/1/5

f 143/1/5 152/1/5 153/1/5 144/1/5

f 144/1/5 153/1/5 154/1/5 145/1/5

f 145/1/5 154/1/5 155/1/5 146/1/5

f 146/1/5 155/1/5 156/1/5 147/1/5

f 147/1/5 156/1/5 42/1/5 40/1/5

f 10/1/5 12/1/5 157/1/5 148/1/5

f 148/1/5 157/1/5 158/1/5 149/1/5

f 149/1/5 158/1/5 159/1/5 150/1/5

f 150/1/5 159/1/5 160/1/5 151/1/5

f 151/1/5 160/1/5 161/1/5 152/1/5

f 152/1/5 161/1/5 162/1/5 153/1/5

f 153/1/5 162/1/5 163/1/5 154/1/5

f 154/1/5 163/1/5 164/1/5 155/1/5

f 155/1/5 164/1/5 165/1/5 156/1/5

f 156/1/5 165/1/5 44/1/5 42/1/5

f 12/1/5 14/1/5 166/1/5 157/1/5

f 157/1/5 166/1/5 167/1/5 158/1/5

f 158/1/5 167/1/5 168/1/5 159/1/5

f 159/1/5 168/1/5 169/1/5 160/1/5

f 160/1/5 169/1/5 170/1/5 161/1/5

f 161/1/5 170/1/5 171/1/5 162/1/5

f 162/1/5 171/1/5 172/1/5 163/1/5

f 163/1/5 172/1/5 173/1/5 164/1/5

f 164/1/5 173/1/5 174/1/5 165/1/5

f 165/1/5 174/1/5 46/1/5 44/1/5

f 14/1/5 16/1/5 175/1/5 166/1/5

f 166/1/5 175/1/5 176/1/5 167/1/5

f 167/1/5 176/1/5 177/1/5 168/1/5

f 168/1/5 177/1/5 178/1/5 169/1/5

f 169/1/5 178/1/5 179/1/5 170/1/5

f 170/1/5 179/1/5 180/1/5 171/1/5

f 171/1/5 180/1/5 181/1/5 172/1/5

f 172/1/5 181/1/5 182/1/5 173/1/5

f 173/1/5 182/1/5 183/1/5 174/1/5

f 174/1/5 183/1/5 48/1/5 46/1/5

f 16/1/5 18/1/5 184/1/5 175/1/5

f 175/1/5 184/1/5 185/1/5 176/1/5

f 176/1/5 185/1/5 186/1/5 177/1/5

f 177/1/5 186/1/5 187/1/5 178/1/5

f 178/1/5 187/1/5 188/1/5 179/1/5

f 179/1/5 188/1/5 189/1/5 180/1/5

f 180/1/5 189/1/5 190/1/5 181/1/5

f 181/1/5 190/1/5 191/1/5 182/1/5

f 182/1/5 191/1/5 192/1/5 183/1/5

f 183/1/5 192/1/5 50/1/5 48/1/5

f 18/1/5 20/1/5 193/1/5 184/1/5

f 184/1/5 193/1/5 194/1/5 185/1/5

f 185/1/5 194/1/5 195/1/5 186/1/5

f 186/1/5 195/1/5 196/1/5 187/1/5

f 187/1/5 196/1/5 197/1/5 188/1/5

f 188/1/5 197/1/5 198/1/5 189/1/5

f 189/1/5 198/1/5 199/1/5 190/1/5

f 190/1/5 199/1/5 200/1/5 191/1/5

f 191/1/5 200/1/5 201/1/5 192/1/5

f 192/1/5 201/1/5 52/1/5 50/1/5

f 20/1/5 22/1/5 95/1/5 193/1/5

f 193/1/5 95/1/5 97/1/5 194/1/5

f 194/1/5 97/1/5 99/1/5 195/1/5

f 195/1/5 99/1/5 101/1/5 196/1/5

f 196/1/5 101/1/5 103/1/5 197/1/5

f 197/1/5 103/1/5 105/1/5 198/1/5

f 198/1/5 105/1/5 107/1/5 199/1/5

f 199/1/5 107/1/5 109/1/5 200/1/5

f 200/1/5 109/1/5 111/1/5 201/1/5

f 201/1/5 111/1/5 54/1/5 52/1/5

f 23/3/6 85/3/6 202/3/6 24/3/6

f 85/3/6 86/3/6 203/3/6 202/3/6

f 86/3/6 87/3/6 204/3/6 203/3/6

f 87/3/6 88/3/6 205/3/6 204/3/6

f 88/3/6 89/3/6 206/3/6 205/3/6

f 89/3/6 90/3/6 207/3/6 206/3/6

f 90/3/6 91/3/6 208/3/6 207/3/6

f 91/3/6 92/3/6 209/3/6 208/3/6

f 92/3/6 93/3/6 210/3/6 209/3/6

f 93/3/6 57/3/6 56/3/6 210/3/6

f 24/3/6 202/3/6 211/3/6 25/3/6

f 202/2/6 203/2/6 212/2/6 211/2/6

f 203/2/6 204/2/6 213/2/6 212/2/6

f 204/2/6 205/2/6 214/2/6 213/2/6

f 205/2/6 206/2/6 215/2/6 214/2/6

f 206/2/6 207/2/6 216/2/6 215/2/6

f 207/2/6 208/2/6 217/2/6 216/2/6

f 208/2/6 209/2/6 218/2/6 217/2/6

f 209/2/6 210/2/6 219/2/6 218/2/6

f 210/3/6 56/3/6 58/3/6 219/3/6

f 25/3/6 211/3/6 220/3/6 26/3/6

f 211/2/6 212/2/6 221/2/6 220/2/6

f 212/2/6 213/2/6 222/2/6 221/2/6

f 213/2/6 214/2/6 223/2/6 222/2/6

f 214/2/6 215/2/6 224/2/6 223/2/6

f 215/2/6 216/2/6 225/2/6 224/2/6

f 216/2/6 217/2/6 226/2/6 225/2/6

f 217/2/6 218/2/6 227/2/6 226/2/6

f 218/2/6 219/2/6 228/2/6 227/2/6

f 219/3/6 58/3/6 59/3/6 228/3/6

f 26/3/6 220/3/6 229/3/6 27/3/6

f 220/2/6 221/2/6 230/2/6 229/2/6

f 221/2/6 222/2/6 231/2/6 230/2/6

f 222/2/6 223/2/6 232/2/6 231/2/6

f 223/2/6 224/2/6 233/2/6 232/2/6

f 224/2/6 225/2/6 234/2/6 233/2/6

f 225/2/6 226/2/6 235/2/6 234/2/6

f 226/2/6 227/2/6 236/2/6 235/2/6

f 227/2/6 228/2/6 237/2/6 236/2/6

f 228/3/6 59/3/6 60/3/6 237/3/6

f 27/3/6 229/3/6 238/3/6 28/3/6

f 229/2/6 230/2/6 239/2/6 238/2/6

f 230/2/6 231/2/6 240/2/6 239/2/6

f 231/2/6 232/2/6 241/2/6 240/2/6

f 232/2/6 233/2/6 242/2/6 241/2/6

f 233/2/6 234/2/6 243/2/6 242/2/6

f 234/2/6 235/2/6 244/2/6 243/2/6

f 235/2/6 236/2/6 245/2/6 244/2/6

f 236/2/6 237/2/6 246/2/6 245/2/6

f 237/3/6 60/3/6 61/3/6 246/3/6

f 28/3/6 238/3/6 247/3/6 29/3/6

f 238/2/6 239/2/6 248/2/6 247/2/6

f 239/2/6 240/2/6 249/2/6 248/2/6

f 240/2/6 241/2/6 250/2/6 249/2/6

f 241/2/6 242/2/6 251/2/6 250/2/6

f 242/2/6 243/2/6 252/2/6 251/2/6

f 243/2/6 244/2/6 253/2/6 252/2/6

f 244/2/6 245/2/6 254/2/6 253/2/6

f 245/2/6 246/2/6 255/2/6 254/2/6

f 246/3/6 61/3/6 62/3/6 255/3/6

f 29/3/6 247/3/6 256/3/6 30/3/6

f 247/2/6 248/2/6 257/2/6 256/2/6

f 248/2/6 249/2/6 258/2/6 257/2/6

f 249/2/6 250/2/6 259/2/6 258/2/6

f 250/2/6 251/2/6 260/2/6 259/2/6

f 251/2/6 252/2/6 261/2/6 260/2/6

f 252/2/6 253/2/6 262/2/6 261/2/6

f 253/2/6 254/2/6 263/2/6 262/2/6

f 254/2/6 255/2/6 264/2/6 263/2/6

f 255/3/6 62/3/6 63/3/6 264/3/6

f 30/3/6 256/3/6 265/3/6 31/3/6

f 256/2/6 257/2/6 266/2/6 265/2/6

f 257/2/6 258/2/6 267/2/6 266/2/6

f 258/2/6 259/2/6 268/2/6 267/2/6

f 259/2/6 260/2/6 269/2/6 268/2/6

f 260/2/6 261/2/6 270/2/6 269/2/6

f 261/2/6 262/2/6 271/2/6 270/2/6

f 262/2/6 263/2/6 272/2/6 271/2/6

f 263/2/6 264/2/6 273/2/6 272/2/6

f 264/3/6 63/3/6 64/3/6 273/3/6

f 31/3/6 265/3/6 274/3/6 32/3/6

f 265/2/6 266/2/6 275/2/6 274/2/6

f 266/2/6 267/2/6 276/2/6 275/2/6

f 267/2/6 268/2/6 277/2/6 276/2/6

f 268/2/6 269/2/6 278/2/6 277/2/6

f 269/2/6 270/2/6 279/2/6 278/2/6

f 270/2/6 271/2/6 280/2/6 279/2/6

f 271/2/6 272/2/6 281/2/6 280/2/6

f 272/2/6 273/2/6 282/2/6 281/2/6

f 273/3/6 64/3/6 65/3/6 282/3/6

f 32/3/6 274/3/6 112/3/6 33/3/6

f 274/3/6 275/3/6 113/3/6 112/3/6

f 275/3/6 276/3/6 114/3/6 113/3/6

f 276/3/6 277/3/6 115/3/6 114/3/6

f 277/3/6 278/3/6 116/3/6 115/3/6

f 278/3/6 279/3/6 117/3/6 116/3/6

f 279/3/6 280/3/6 118/3/6 117/3/6

f 280/3/6 281/3/6 119/3/6 118/3/6

f 281/3/6 282/3/6 120/3/6 119/3/6

f 282/3/6 65/3/6 66/3/6 120/3/6

# numNormals 6
# numTexCoords 3
# numVerts 282
# numFaces 280
