# MagicaVoxel @ ephtracy

# material
mtllib 1-12.mtl

# normals
vn -1 0 0
vn 1 0 0
vn 0 0 1
vn 0 0 -1
vn 0 -1 0
vn 0 1 0

# texcoords
vt 0.0175781 0.5
vt 0.0683594 0.5
vt 0.443359 0.5
vt 0.630859 0.5
vt 0.958984 0.5
vt 0.994141 0.5

# verts
v -5 0 5
v -5 1 5
v -5 1 4
v -5 0 4
v -5 1 3
v -5 0 3
v -5 1 2
v -5 0 2
v -5 1 1
v -5 0 1
v -5 1 -0
v -5 0 -0
v -5 1 -1
v -5 0 -1
v -5 1 -2
v -5 0 -2
v -5 1 -3
v -5 0 -3
v -5 1 -4
v -5 0 -4
v -5 1 -5
v -5 0 -5
v -5 2 5
v -5 2 4
v -5 2 3
v -5 2 2
v -5 2 1
v -5 2 -0
v -5 2 -1
v -5 2 -2
v -5 2 -3
v -5 2 -4
v -5 2 -5
v 5 0 5
v 5 0 4
v 5 1 4
v 5 1 5
v 5 0 3
v 5 1 3
v 5 0 2
v 5 1 2
v 5 0 1
v 5 1 1
v 5 0 -0
v 5 1 -0
v 5 0 -1
v 5 1 -1
v 5 0 -2
v 5 1 -2
v 5 0 -3
v 5 1 -3
v 5 0 -4
v 5 1 -4
v 5 0 -5
v 5 1 -5
v 5 2 4
v 5 2 5
v 5 2 3
v 5 2 2
v 5 2 1
v 5 2 -0
v 5 2 -1
v 5 2 -2
v 5 2 -3
v 5 2 -4
v 5 2 -5
v -4 0 5
v -4 1 5
v -3 0 5
v -3 1 5
v -2 0 5
v -2 1 5
v -1 0 5
v -1 1 5
v 0 0 5
v 0 1 5
v 1 0 5
v 1 1 5
v 2 0 5
v 2 1 5
v 3 0 5
v 3 1 5
v 4 0 5
v 4 1 5
v -4 2 5
v -3 2 5
v -2 2 5
v -1 2 5
v 0 2 5
v 1 2 5
v 2 2 5
v 3 2 5
v 4 2 5
v -4 1 -5
v -4 0 -5
v -3 1 -5
v -3 0 -5
v -2 1 -5
v -2 0 -5
v -1 1 -5
v -1 0 -5
v 0 1 -5
v 0 0 -5
v 1 1 -5
v 1 0 -5
v 2 1 -5
v 2 0 -5
v 3 1 -5
v 3 0 -5
v 4 1 -5
v 4 0 -5
v -4 2 -5
v -3 2 -5
v -2 2 -5
v -1 2 -5
v 0 2 -5
v 1 2 -5
v 2 2 -5
v 3 2 -5
v 4 2 -5
v -4 0 4
v -3 0 4
v -2 0 4
v -1 0 4
v 0 0 4
v 1 0 4
v 2 0 4
v 3 0 4
v 4 0 4
v -4 0 3
v -3 0 3
v -2 0 3
v -1 0 3
v 0 0 3
v 1 0 3
v 2 0 3
v 3 0 3
v 4 0 3
v -4 0 2
v -3 0 2
v -2 0 2
v -1 0 2
v 0 0 2
v 1 0 2
v 2 0 2
v 3 0 2
v 4 0 2
v -4 0 1
v -3 0 1
v -2 0 1
v -1 0 1
v 0 0 1
v 1 0 1
v 2 0 1
v 3 0 1
v 4 0 1
v -4 0 -0
v -3 0 -0
v -2 0 -0
v -1 0 -0
v 0 0 -0
v 1 0 -0
v 2 0 -0
v 3 0 -0
v 4 0 -0
v -4 0 -1
v -3 0 -1
v -2 0 -1
v -1 0 -1
v 0 0 -1
v 1 0 -1
v 2 0 -1
v 3 0 -1
v 4 0 -1
v -4 0 -2
v -3 0 -2
v -2 0 -2
v -1 0 -2
v 0 0 -2
v 1 0 -2
v 2 0 -2
v 3 0 -2
v 4 0 -2
v -4 0 -3
v -3 0 -3
v -2 0 -3
v -1 0 -3
v 0 0 -3
v 1 0 -3
v 2 0 -3
v 3 0 -3
v 4 0 -3
v -4 0 -4
v -3 0 -4
v -2 0 -4
v -1 0 -4
v 0 0 -4
v 1 0 -4
v 2 0 -4
v 3 0 -4
v 4 0 -4
v -4 2 4
v -3 2 4
v -2 2 4
v -1 2 4
v 0 2 4
v 1 2 4
v 2 2 4
v 3 2 4
v 4 2 4
v -4 2 3
v -3 2 3
v -2 2 3
v -1 2 3
v 0 2 3
v 1 2 3
v 2 2 3
v 3 2 3
v 4 2 3
v -4 2 2
v -3 2 2
v -2 2 2
v -1 2 2
v 0 2 2
v 1 2 2
v 2 2 2
v 3 2 2
v 4 2 2
v -4 2 1
v -3 2 1
v -2 2 1
v -1 2 1
v 0 2 1
v 1 2 1
v 2 2 1
v 3 2 1
v 4 2 1
v -4 2 -0
v -3 2 -0
v -2 2 -0
v -1 2 -0
v 0 2 -0
v 1 2 -0
v 2 2 -0
v 3 2 -0
v 4 2 -0
v -4 2 -1
v -3 2 -1
v -2 2 -1
v -1 2 -1
v 0 2 -1
v 1 2 -1
v 2 2 -1
v 3 2 -1
v 4 2 -1
v -4 2 -2
v -3 2 -2
v -2 2 -2
v -1 2 -2
v 0 2 -2
v 1 2 -2
v 2 2 -2
v 3 2 -2
v 4 2 -2
v -4 2 -3
v -3 2 -3
v -2 2 -3
v -1 2 -3
v 0 2 -3
v 1 2 -3
v 2 2 -3
v 3 2 -3
v 4 2 -3
v -4 2 -4
v -3 2 -4
v -2 2 -4
v -1 2 -4
v 0 2 -4
v 1 2 -4
v 2 2 -4
v 3 2 -4
v 4 2 -4

# faces

usemtl palette

f 1/2/1 2/2/1 3/2/1 4/2/1

f 4/2/1 3/2/1 5/2/1 6/2/1

f 6/2/1 5/2/1 7/2/1 8/2/1

f 8/2/1 7/2/1 9/2/1 10/2/1

f 10/2/1 9/2/1 11/2/1 12/2/1

f 12/2/1 11/2/1 13/2/1 14/2/1

f 14/2/1 13/2/1 15/2/1 16/2/1

f 16/2/1 15/2/1 17/2/1 18/2/1

f 18/2/1 17/2/1 19/2/1 20/2/1

f 20/2/1 19/2/1 21/2/1 22/2/1

f 2/6/1 23/6/1 24/6/1 3/6/1

f 3/6/1 24/6/1 25/6/1 5/6/1

f 5/6/1 25/6/1 26/6/1 7/6/1

f 7/6/1 26/6/1 27/6/1 9/6/1

f 9/6/1 27/6/1 28/6/1 11/6/1

f 11/6/1 28/6/1 29/6/1 13/6/1

f 13/6/1 29/6/1 30/6/1 15/6/1

f 15/6/1 30/6/1 31/6/1 17/6/1

f 17/6/1 31/6/1 32/6/1 19/6/1

f 19/6/1 32/6/1 33/6/1 21/6/1

f 34/1/2 35/1/2 36/1/2 37/1/2

f 35/1/2 38/1/2 39/1/2 36/1/2

f 38/1/2 40/1/2 41/1/2 39/1/2

f 40/4/2 42/4/2 43/4/2 41/4/2

f 42/4/2 44/4/2 45/4/2 43/4/2

f 44/4/2 46/4/2 47/4/2 45/4/2

f 46/4/2 48/4/2 49/4/2 47/4/2

f 48/1/2 50/1/2 51/1/2 49/1/2

f 50/1/2 52/1/2 53/1/2 51/1/2

f 52/1/2 54/1/2 55/1/2 53/1/2

f 37/6/2 36/6/2 56/6/2 57/6/2

f 36/6/2 39/6/2 58/6/2 56/6/2

f 39/6/2 41/6/2 59/6/2 58/6/2

f 41/6/2 43/6/2 60/6/2 59/6/2

f 43/6/2 45/6/2 61/6/2 60/6/2

f 45/6/2 47/6/2 62/6/2 61/6/2

f 47/6/2 49/6/2 63/6/2 62/6/2

f 49/6/2 51/6/2 64/6/2 63/6/2

f 51/6/2 53/6/2 65/6/2 64/6/2

f 53/6/2 55/6/2 66/6/2 65/6/2

f 1/2/3 67/2/3 68/2/3 2/2/3

f 67/2/3 69/2/3 70/2/3 68/2/3

f 69/2/3 71/2/3 72/2/3 70/2/3

f 71/2/3 73/2/3 74/2/3 72/2/3

f 73/1/3 75/1/3 76/1/3 74/1/3

f 75/1/3 77/1/3 78/1/3 76/1/3

f 77/1/3 79/1/3 80/1/3 78/1/3

f 79/1/3 81/1/3 82/1/3 80/1/3

f 81/1/3 83/1/3 84/1/3 82/1/3

f 83/1/3 34/1/3 37/1/3 84/1/3

f 2/6/3 68/6/3 85/6/3 23/6/3

f 68/6/3 70/6/3 86/6/3 85/6/3

f 70/6/3 72/6/3 87/6/3 86/6/3

f 72/6/3 74/6/3 88/6/3 87/6/3

f 74/6/3 76/6/3 89/6/3 88/6/3

f 76/6/3 78/6/3 90/6/3 89/6/3

f 78/6/3 80/6/3 91/6/3 90/6/3

f 80/6/3 82/6/3 92/6/3 91/6/3

f 82/6/3 84/6/3 93/6/3 92/6/3

f 84/6/3 37/6/3 57/6/3 93/6/3

f 22/2/4 21/2/4 94/2/4 95/2/4

f 95/2/4 94/2/4 96/2/4 97/2/4

f 97/2/4 96/2/4 98/2/4 99/2/4

f 99/2/4 98/2/4 100/2/4 101/2/4

f 101/1/4 100/1/4 102/1/4 103/1/4

f 103/1/4 102/1/4 104/1/4 105/1/4

f 105/1/4 104/1/4 106/1/4 107/1/4

f 107/1/4 106/1/4 108/1/4 109/1/4

f 109/1/4 108/1/4 110/1/4 111/1/4

f 111/1/4 110/1/4 55/1/4 54/1/4

f 21/6/4 33/6/4 112/6/4 94/6/4

f 94/6/4 112/6/4 113/6/4 96/6/4

f 96/6/4 113/6/4 114/6/4 98/6/4

f 98/6/4 114/6/4 115/6/4 100/6/4

f 100/6/4 115/6/4 116/6/4 102/6/4

f 102/6/4 116/6/4 117/6/4 104/6/4

f 104/6/4 117/6/4 118/6/4 106/6/4

f 106/6/4 118/6/4 119/6/4 108/6/4

f 108/6/4 119/6/4 120/6/4 110/6/4

f 110/6/4 120/6/4 66/6/4 55/6/4

f 1/2/5 4/2/5 121/2/5 67/2/5

f 67/2/5 121/2/5 122/2/5 69/2/5

f 69/2/5 122/2/5 123/2/5 71/2/5

f 71/2/5 123/2/5 124/2/5 73/2/5

f 73/1/5 124/1/5 125/1/5 75/1/5

f 75/1/5 125/1/5 126/1/5 77/1/5

f 77/1/5 126/1/5 127/1/5 79/1/5

f 79/1/5 127/1/5 128/1/5 81/1/5

f 81/1/5 128/1/5 129/1/5 83/1/5

f 83/1/5 129/1/5 35/1/5 34/1/5

f 4/2/5 6/2/5 130/2/5 121/2/5

f 121/2/5 130/2/5 131/2/5 122/2/5

f 122/2/5 131/2/5 132/2/5 123/2/5

f 123/2/5 132/2/5 133/2/5 124/2/5

f 124/1/5 133/1/5 134/1/5 125/1/5

f 125/1/5 134/1/5 135/1/5 126/1/5

f 126/1/5 135/1/5 136/1/5 127/1/5

f 127/1/5 136/1/5 137/1/5 128/1/5

f 128/1/5 137/1/5 138/1/5 129/1/5

f 129/1/5 138/1/5 38/1/5 35/1/5

f 6/2/5 8/2/5 139/2/5 130/2/5

f 130/2/5 139/2/5 140/2/5 131/2/5

f 131/1/5 140/1/5 141/1/5 132/1/5

f 132/1/5 141/1/5 142/1/5 133/1/5

f 133/1/5 142/1/5 143/1/5 134/1/5

f 134/1/5 143/1/5 144/1/5 135/1/5

f 135/1/5 144/1/5 145/1/5 136/1/5

f 136/1/5 145/1/5 146/1/5 137/1/5

f 137/1/5 146/1/5 147/1/5 138/1/5

f 138/1/5 147/1/5 40/1/5 38/1/5

f 8/2/5 10/2/5 148/2/5 139/2/5

f 139/2/5 148/2/5 149/2/5 140/2/5

f 140/1/5 149/1/5 150/1/5 141/1/5

f 141/1/5 150/1/5 151/1/5 142/1/5

f 142/1/5 151/1/5 152/1/5 143/1/5

f 143/1/5 152/1/5 153/1/5 144/1/5

f 144/1/5 153/1/5 154/1/5 145/1/5

f 145/3/5 154/3/5 155/3/5 146/3/5

f 146/3/5 155/3/5 156/3/5 147/3/5

f 147/4/5 156/4/5 42/4/5 40/4/5

f 10/2/5 12/2/5 157/2/5 148/2/5

f 148/2/5 157/2/5 158/2/5 149/2/5

f 149/1/5 158/1/5 159/1/5 150/1/5

f 150/1/5 159/1/5 160/1/5 151/1/5

f 151/1/5 160/1/5 161/1/5 152/1/5

f 152/1/5 161/1/5 162/1/5 153/1/5

f 153/1/5 162/1/5 163/1/5 154/1/5

f 154/3/5 163/3/5 164/3/5 155/3/5

f 155/3/5 164/3/5 165/3/5 156/3/5

f 156/4/5 165/4/5 44/4/5 42/4/5

f 12/2/5 14/2/5 166/2/5 157/2/5

f 157/2/5 166/2/5 167/2/5 158/2/5

f 158/1/5 167/1/5 168/1/5 159/1/5

f 159/1/5 168/1/5 169/1/5 160/1/5

f 160/1/5 169/1/5 170/1/5 161/1/5

f 161/1/5 170/1/5 171/1/5 162/1/5

f 162/1/5 171/1/5 172/1/5 163/1/5

f 163/3/5 172/3/5 173/3/5 164/3/5

f 164/3/5 173/3/5 174/3/5 165/3/5

f 165/4/5 174/4/5 46/4/5 44/4/5

f 14/2/5 16/2/5 175/2/5 166/2/5

f 166/2/5 175/2/5 176/2/5 167/2/5

f 167/1/5 176/1/5 177/1/5 168/1/5

f 168/1/5 177/1/5 178/1/5 169/1/5

f 169/1/5 178/1/5 179/1/5 170/1/5

f 170/1/5 179/1/5 180/1/5 171/1/5

f 171/1/5 180/1/5 181/1/5 172/1/5

f 172/3/5 181/3/5 182/3/5 173/3/5

f 173/3/5 182/3/5 183/3/5 174/3/5

f 174/4/5 183/4/5 48/4/5 46/4/5

f 16/2/5 18/2/5 184/2/5 175/2/5

f 175/2/5 184/2/5 185/2/5 176/2/5

f 176/1/5 185/1/5 186/1/5 177/1/5

f 177/1/5 186/1/5 187/1/5 178/1/5

f 178/1/5 187/1/5 188/1/5 179/1/5

f 179/1/5 188/1/5 189/1/5 180/1/5

f 180/1/5 189/1/5 190/1/5 181/1/5

f 181/1/5 190/1/5 191/1/5 182/1/5

f 182/1/5 191/1/5 192/1/5 183/1/5

f 183/1/5 192/1/5 50/1/5 48/1/5

f 18/2/5 20/2/5 193/2/5 184/2/5

f 184/2/5 193/2/5 194/2/5 185/2/5

f 185/2/5 194/2/5 195/2/5 186/2/5

f 186/2/5 195/2/5 196/2/5 187/2/5

f 187/1/5 196/1/5 197/1/5 188/1/5

f 188/1/5 197/1/5 198/1/5 189/1/5

f 189/1/5 198/1/5 199/1/5 190/1/5

f 190/1/5 199/1/5 200/1/5 191/1/5

f 191/1/5 200/1/5 201/1/5 192/1/5

f 192/1/5 201/1/5 52/1/5 50/1/5

f 20/2/5 22/2/5 95/2/5 193/2/5

f 193/2/5 95/2/5 97/2/5 194/2/5

f 194/2/5 97/2/5 99/2/5 195/2/5

f 195/2/5 99/2/5 101/2/5 196/2/5

f 196/1/5 101/1/5 103/1/5 197/1/5

f 197/1/5 103/1/5 105/1/5 198/1/5

f 198/1/5 105/1/5 107/1/5 199/1/5

f 199/1/5 107/1/5 109/1/5 200/1/5

f 200/1/5 109/1/5 111/1/5 201/1/5

f 201/1/5 111/1/5 54/1/5 52/1/5

f 23/6/6 85/6/6 202/6/6 24/6/6

f 85/6/6 86/6/6 203/6/6 202/6/6

f 86/6/6 87/6/6 204/6/6 203/6/6

f 87/6/6 88/6/6 205/6/6 204/6/6

f 88/6/6 89/6/6 206/6/6 205/6/6

f 89/6/6 90/6/6 207/6/6 206/6/6

f 90/6/6 91/6/6 208/6/6 207/6/6

f 91/6/6 92/6/6 209/6/6 208/6/6

f 92/6/6 93/6/6 210/6/6 209/6/6

f 93/6/6 57/6/6 56/6/6 210/6/6

f 24/6/6 202/6/6 211/6/6 25/6/6

f 202/5/6 203/5/6 212/5/6 211/5/6

f 203/5/6 204/5/6 213/5/6 212/5/6

f 204/5/6 205/5/6 214/5/6 213/5/6

f 205/5/6 206/5/6 215/5/6 214/5/6

f 206/5/6 207/5/6 216/5/6 215/5/6

f 207/5/6 208/5/6 217/5/6 216/5/6

f 208/5/6 209/5/6 218/5/6 217/5/6

f 209/5/6 210/5/6 219/5/6 218/5/6

f 210/6/6 56/6/6 58/6/6 219/6/6

f 25/6/6 211/6/6 220/6/6 26/6/6

f 211/5/6 212/5/6 221/5/6 220/5/6

f 212/5/6 213/5/6 222/5/6 221/5/6

f 213/5/6 214/5/6 223/5/6 222/5/6

f 214/5/6 215/5/6 224/5/6 223/5/6

f 215/5/6 216/5/6 225/5/6 224/5/6

f 216/5/6 217/5/6 226/5/6 225/5/6

f 217/5/6 218/5/6 227/5/6 226/5/6

f 218/5/6 219/5/6 228/5/6 227/5/6

f 219/6/6 58/6/6 59/6/6 228/6/6

f 26/6/6 220/6/6 229/6/6 27/6/6

f 220/5/6 221/5/6 230/5/6 229/5/6

f 221/5/6 222/5/6 231/5/6 230/5/6

f 222/5/6 223/5/6 232/5/6 231/5/6

f 223/5/6 224/5/6 233/5/6 232/5/6

f 224/5/6 225/5/6 234/5/6 233/5/6

f 225/5/6 226/5/6 235/5/6 234/5/6

f 226/5/6 227/5/6 236/5/6 235/5/6

f 227/5/6 228/5/6 237/5/6 236/5/6

f 228/6/6 59/6/6 60/6/6 237/6/6

f 27/6/6 229/6/6 238/6/6 28/6/6

f 229/5/6 230/5/6 239/5/6 238/5/6

f 230/5/6 231/5/6 240/5/6 239/5/6

f 231/5/6 232/5/6 241/5/6 240/5/6

f 232/5/6 233/5/6 242/5/6 241/5/6

f 233/5/6 234/5/6 243/5/6 242/5/6

f 234/5/6 235/5/6 244/5/6 243/5/6

f 235/5/6 236/5/6 245/5/6 244/5/6

f 236/5/6 237/5/6 246/5/6 245/5/6

f 237/6/6 60/6/6 61/6/6 246/6/6

f 28/6/6 238/6/6 247/6/6 29/6/6

f 238/5/6 239/5/6 248/5/6 247/5/6

f 239/5/6 240/5/6 249/5/6 248/5/6

f 240/5/6 241/5/6 250/5/6 249/5/6

f 241/5/6 242/5/6 251/5/6 250/5/6

f 242/5/6 243/5/6 252/5/6 251/5/6

f 243/5/6 244/5/6 253/5/6 252/5/6

f 244/5/6 245/5/6 254/5/6 253/5/6

f 245/5/6 246/5/6 255/5/6 254/5/6

f 246/6/6 61/6/6 62/6/6 255/6/6

f 29/6/6 247/6/6 256/6/6 30/6/6

f 247/5/6 248/5/6 257/5/6 256/5/6

f 248/5/6 249/5/6 258/5/6 257/5/6

f 249/5/6 250/5/6 259/5/6 258/5/6

f 250/5/6 251/5/6 260/5/6 259/5/6

f 251/5/6 252/5/6 261/5/6 260/5/6

f 252/5/6 253/5/6 262/5/6 261/5/6

f 253/5/6 254/5/6 263/5/6 262/5/6

f 254/5/6 255/5/6 264/5/6 263/5/6

f 255/6/6 62/6/6 63/6/6 264/6/6

f 30/6/6 256/6/6 265/6/6 31/6/6

f 256/5/6 257/5/6 266/5/6 265/5/6

f 257/5/6 258/5/6 267/5/6 266/5/6

f 258/5/6 259/5/6 268/5/6 267/5/6

f 259/5/6 260/5/6 269/5/6 268/5/6

f 260/5/6 261/5/6 270/5/6 269/5/6

f 261/5/6 262/5/6 271/5/6 270/5/6

f 262/5/6 263/5/6 272/5/6 271/5/6

f 263/5/6 264/5/6 273/5/6 272/5/6

f 264/6/6 63/6/6 64/6/6 273/6/6

f 31/6/6 265/6/6 274/6/6 32/6/6

f 265/5/6 266/5/6 275/5/6 274/5/6

f 266/5/6 267/5/6 276/5/6 275/5/6

f 267/5/6 268/5/6 277/5/6 276/5/6

f 268/5/6 269/5/6 278/5/6 277/5/6

f 269/5/6 270/5/6 279/5/6 278/5/6

f 270/5/6 271/5/6 280/5/6 279/5/6

f 271/5/6 272/5/6 281/5/6 280/5/6

f 272/5/6 273/5/6 282/5/6 281/5/6

f 273/6/6 64/6/6 65/6/6 282/6/6

f 32/6/6 274/6/6 112/6/6 33/6/6

f 274/6/6 275/6/6 113/6/6 112/6/6

f 275/6/6 276/6/6 114/6/6 113/6/6

f 276/6/6 277/6/6 115/6/6 114/6/6

f 277/6/6 278/6/6 116/6/6 115/6/6

f 278/6/6 279/6/6 117/6/6 116/6/6

f 279/6/6 280/6/6 118/6/6 117/6/6

f 280/6/6 281/6/6 119/6/6 118/6/6

f 281/6/6 282/6/6 120/6/6 119/6/6

f 282/6/6 65/6/6 66/6/6 120/6/6

# numNormals 6
# numTexCoords 6
# numVerts 282
# numFaces 280
