# MagicaVoxel @ ephtracy

# material
mtllib 6.mtl

# normals
vn -1 0 0
vn 1 0 0
vn 0 0 1
vn 0 0 -1
vn 0 -1 0
vn 0 1 0

# texcoords
vt 0.0996094 0.5
vt 0.212891 0.5
vt 0.240234 0.5

# verts
v -2 2 6
v -2 3 6
v -2 3 5
v -2 2 5
v -7 2 -6
v -7 3 -6
v -7 3 -7
v -7 2 -7
v -10 2 -2
v -10 3 -2
v -10 3 -3
v -10 2 -3
v -4 2 4
v -4 3 4
v -4 3 3
v -4 2 3
v 2 2 -5
v 2 3 -5
v 2 3 -6
v 2 2 -6
v -6 2 2
v -6 3 2
v -6 3 1
v -6 2 1
v -5 2 3
v -5 3 3
v -5 3 2
v -5 2 2
v -3 2 5
v -3 3 5
v -3 3 4
v -3 2 4
v -8 2 -0
v -8 3 -0
v -8 3 -1
v -8 2 -1
v -9 2 -1
v -9 3 -1
v -9 3 -2
v -9 2 -2
v -7 2 1
v -7 3 1
v -7 3 -0
v -7 2 -0
v -9 2 -4
v -9 3 -4
v -9 3 -5
v -9 2 -5
v -1 2 7
v -1 3 7
v -1 3 6
v -1 2 6
v 1 2 -4
v 1 3 -4
v 1 3 -5
v 1 2 -5
v -8 2 -5
v -8 3 -5
v -8 3 -6
v -8 2 -6
v 3 2 -6
v 3 3 -6
v 3 3 -7
v 3 2 -7
v 0 2 -3
v 0 3 -3
v 0 3 -4
v 0 2 -4
v -10 3 -4
v -10 2 -4
v -1 2 -3
v -1 2 -4
v -1 3 -4
v -1 3 -3
v 4 2 3
v 4 2 2
v 4 3 2
v 4 3 3
v 6 2 -6
v 6 2 -7
v 6 3 -7
v 6 3 -6
v 1 2 6
v 1 2 5
v 1 3 5
v 1 3 6
v 9 2 -2
v 9 2 -3
v 9 3 -3
v 9 3 -2
v -4 2 -6
v -4 2 -7
v -4 3 -7
v -4 3 -6
v 2 2 5
v 2 2 4
v 2 3 4
v 2 3 5
v 8 2 -1
v 8 2 -2
v 8 3 -2
v 8 3 -1
v 0 2 7
v 0 2 6
v 0 3 6
v 0 3 7
v 8 2 -4
v 8 2 -5
v 8 3 -5
v 8 3 -4
v 7 2 -0
v 7 2 -1
v 7 3 -1
v 7 3 -0
v -2 2 -4
v -2 2 -5
v -2 3 -5
v -2 3 -4
v -3 2 -5
v -3 2 -6
v -3 3 -6
v -3 3 -5
v 6 2 1
v 6 2 -0
v 6 3 -0
v 6 3 1
v 5 2 2
v 5 2 1
v 5 3 1
v 5 3 2
v 7 2 -5
v 7 2 -6
v 7 3 -6
v 7 3 -5
v 9 2 -4
v 9 3 -4
v 3 2 4
v 3 2 3
v 3 3 3
v 3 3 4
v -6 3 -7
v -6 2 -7
v 5 2 -7
v 5 3 -7
v 4 2 -7
v 4 3 -7
v -5 2 -7
v -5 3 -7
v -7 2 -4
v -7 2 -5
v -6 2 -5
v -6 2 -4
v 2 2 -3
v 2 2 -4
v 3 2 -4
v 3 2 -3
v -1 2 5
v -2 2 3
v -2 2 2
v -1 2 2
v -1 2 3
v -3 2 3
v -2 2 4
v -1 2 -0
v -1 2 -1
v 0 2 -1
v 0 2 -0
v -6 2 -6
v 4 2 -4
v 4 2 -3
v 0 2 2
v 0 2 3
v -1 2 -2
v 0 2 -2
v -9 2 -3
v 3 2 -5
v 4 2 -6
v 4 2 -5
v -1 2 1
v 0 2 1
v -3 2 -1
v -3 2 -2
v -2 2 -2
v -2 2 -1
v 1 2 2
v 1 2 3
v -4 2 -3
v -4 2 -4
v -3 2 -4
v -3 2 -3
v 1 2 -3
v 1 2 -2
v -1 2 4
v 0 2 4
v 0 2 5
v 2 2 -2
v 3 2 -2
v -2 2 -3
v 6 2 -1
v 6 2 -2
v 7 2 -2
v -6 2 -1
v -6 2 -2
v -5 2 -2
v -5 2 -1
v -4 2 -5
v 1 2 4
v 3 2 2
v 5 2 -6
v 2 2 -1
v 3 2 -1
v -3 2 2
v -3 2 1
v -2 2 1
v 2 2 3
v 4 2 1
v 4 2 -0
v 5 2 -0
v -5 2 1
v 3 2 1
v 2 2 -0
v 3 2 -0
v 4 2 -1
v 5 2 -1
v 1 2 1
v -4 2 1
v -4 2 -0
v -3 2 -0
v -2 2 -0
v -5 2 -3
v -5 2 -4
v 2 2 1
v -5 2 -5
v -5 2 -6
v 1 2 -1
v 6 2 -3
v 6 2 -4
v 7 2 -4
v 7 2 -3
v 8 2 -3
v -4 2 -2
v 1 2 -0
v 4 2 -2
v -4 2 -1
v 5 2 -5
v 6 2 -5
v -4 2 2
v 5 2 -3
v 5 2 -4
v 5 2 -2
v -7 2 -1
v -8 2 -2
v -7 2 -3
v -6 2 -3
v 2 2 2
v -5 2 -0
v -6 2 -0
v -7 2 -2
v -8 2 -4
v -8 2 -3
v -7 3 -4
v -6 3 -4
v -6 3 -5
v -7 3 -5
v 2 3 -3
v 3 3 -3
v 3 3 -4
v 2 3 -4
v -1 3 5
v -2 3 3
v -1 3 3
v -1 3 2
v -2 3 2
v -2 3 4
v -3 3 3
v -1 3 -0
v 0 3 -0
v 0 3 -1
v -1 3 -1
v -6 3 -6
v 4 3 -3
v 4 3 -4
v 0 3 3
v 0 3 2
v 0 3 -2
v -1 3 -2
v -9 3 -3
v 3 3 -5
v 4 3 -5
v 4 3 -6
v 0 3 1
v -1 3 1
v -3 3 -1
v -2 3 -1
v -2 3 -2
v -3 3 -2
v 1 3 3
v 1 3 2
v -4 3 -3
v -3 3 -3
v -3 3 -4
v -4 3 -4
v 1 3 -2
v 1 3 -3
v 0 3 5
v 0 3 4
v -1 3 4
v 2 3 -2
v 3 3 -2
v -2 3 -3
v 6 3 -1
v 7 3 -2
v 6 3 -2
v -6 3 -1
v -5 3 -1
v -5 3 -2
v -6 3 -2
v -4 3 -5
v 1 3 4
v 3 3 2
v 5 3 -6
v 2 3 -1
v 3 3 -1
v -3 3 2
v -2 3 1
v -3 3 1
v 2 3 3
v 4 3 1
v 5 3 -0
v 4 3 -0
v -5 3 1
v 3 3 1
v 2 3 -0
v 3 3 -0
v 5 3 -1
v 4 3 -1
v 1 3 1
v -4 3 1
v -3 3 -0
v -4 3 -0
v -2 3 -0
v -5 3 -3
v -5 3 -4
v 2 3 1
v -5 3 -5
v -5 3 -6
v 1 3 -1
v 6 3 -3
v 7 3 -3
v 7 3 -4
v 6 3 -4
v 8 3 -3
v -4 3 -2
v 1 3 -0
v 4 3 -2
v -4 3 -1
v 5 3 -5
v 6 3 -5
v -4 3 2
v 5 3 -3
v 5 3 -4
v 5 3 -2
v -7 3 -1
v -8 3 -2
v -7 3 -3
v -6 3 -3
v 2 3 2
v -5 3 -0
v -6 3 -0
v -7 3 -2
v -8 3 -4
v -8 3 -3

# faces

usemtl palette

f 1/3/1 2/3/1 3/3/1 4/3/1

f 5/3/1 6/3/1 7/3/1 8/3/1

f 9/3/1 10/3/1 11/3/1 12/3/1

f 13/3/1 14/3/1 15/3/1 16/3/1

f 17/3/1 18/3/1 19/3/1 20/3/1

f 21/3/1 22/3/1 23/3/1 24/3/1

f 25/3/1 26/3/1 27/3/1 28/3/1

f 29/3/1 30/3/1 31/3/1 32/3/1

f 33/3/1 34/3/1 35/3/1 36/3/1

f 37/3/1 38/3/1 39/3/1 40/3/1

f 41/3/1 42/3/1 43/3/1 44/3/1

f 45/3/1 46/3/1 47/3/1 48/3/1

f 49/3/1 50/3/1 51/3/1 52/3/1

f 53/3/1 54/3/1 55/3/1 56/3/1

f 57/3/1 58/3/1 59/3/1 60/3/1

f 61/3/1 62/3/1 63/3/1 64/3/1

f 65/3/1 66/3/1 67/3/1 68/3/1

f 12/3/1 11/3/1 69/3/1 70/3/1

f 71/3/2 72/3/2 73/3/2 74/3/2

f 75/3/2 76/3/2 77/3/2 78/3/2

f 79/3/2 80/3/2 81/3/2 82/3/2

f 83/3/2 84/3/2 85/3/2 86/3/2

f 87/3/2 88/3/2 89/3/2 90/3/2

f 91/3/2 92/3/2 93/3/2 94/3/2

f 95/3/2 96/3/2 97/3/2 98/3/2

f 99/3/2 100/3/2 101/3/2 102/3/2

f 103/3/2 104/3/2 105/3/2 106/3/2

f 107/3/2 108/3/2 109/3/2 110/3/2

f 111/3/2 112/3/2 113/3/2 114/3/2

f 115/3/2 116/3/2 117/3/2 118/3/2

f 119/3/2 120/3/2 121/3/2 122/3/2

f 123/3/2 124/3/2 125/3/2 126/3/2

f 127/3/2 128/3/2 129/3/2 130/3/2

f 131/3/2 132/3/2 133/3/2 134/3/2

f 88/3/2 135/3/2 136/3/2 89/3/2

f 137/3/2 138/3/2 139/3/2 140/3/2

f 1/3/3 52/3/3 51/3/3 2/3/3

f 9/3/3 40/3/3 39/3/3 10/3/3

f 13/3/3 32/3/3 31/3/3 14/3/3

f 138/3/3 75/3/3 78/3/3 139/3/3

f 104/3/3 83/3/3 86/3/3 105/3/3

f 21/3/3 28/3/3 27/3/3 22/3/3

f 100/3/3 87/3/3 90/3/3 101/3/3

f 25/3/3 16/3/3 15/3/3 26/3/3

f 29/3/3 4/3/3 3/3/3 30/3/3

f 33/3/3 44/3/3 43/3/3 34/3/3

f 37/3/3 36/3/3 35/3/3 38/3/3

f 41/3/3 24/3/3 23/3/3 42/3/3

f 84/3/3 95/3/3 98/3/3 85/3/3

f 112/3/3 99/3/3 102/3/3 113/3/3

f 49/3/3 103/3/3 106/3/3 50/3/3

f 124/3/3 111/3/3 114/3/3 125/3/3

f 128/3/3 123/3/3 126/3/3 129/3/3

f 76/3/3 127/3/3 130/3/3 77/3/3

f 96/3/3 137/3/3 140/3/3 97/3/3

f 8/3/4 7/3/4 141/3/4 142/3/4

f 115/3/4 118/3/4 73/3/4 72/3/4

f 20/3/4 19/3/4 62/3/4 61/3/4

f 143/3/4 144/3/4 81/3/4 80/3/4

f 145/3/4 146/3/4 144/3/4 143/3/4

f 147/3/4 148/3/4 93/3/4 92/3/4

f 71/3/4 74/3/4 66/3/4 65/3/4

f 48/3/4 47/3/4 58/3/4 57/3/4

f 131/3/4 134/3/4 109/3/4 108/3/4

f 142/3/4 141/3/4 148/3/4 147/3/4

f 56/3/4 55/3/4 18/3/4 17/3/4

f 60/3/4 59/3/4 6/3/4 5/3/4

f 119/3/4 122/3/4 117/3/4 116/3/4

f 64/3/4 63/3/4 146/3/4 145/3/4

f 91/3/4 94/3/4 121/3/4 120/3/4

f 68/3/4 67/3/4 54/3/4 53/3/4

f 70/3/4 69/3/4 46/3/4 45/3/4

f 79/3/4 82/3/4 133/3/4 132/3/4

f 107/3/4 110/3/4 136/3/4 135/3/4

f 149/1/5 150/1/5 151/1/5 152/1/5

f 153/1/5 154/1/5 155/1/5 156/1/5

f 1/3/5 4/3/5 157/3/5 52/3/5

f 158/1/5 159/1/5 160/1/5 161/1/5

f 32/1/5 162/1/5 158/1/5 163/1/5

f 164/1/5 165/1/5 166/1/5 167/1/5

f 5/3/5 8/3/5 142/3/5 168/3/5

f 156/1/5 155/1/5 169/1/5 170/1/5

f 161/1/5 160/1/5 171/1/5 172/1/5

f 165/1/5 173/1/5 174/1/5 166/1/5

f 9/3/5 12/3/5 175/3/5 40/3/5

f 176/1/5 61/1/5 177/1/5 178/1/5

f 160/1/5 179/1/5 180/1/5 171/1/5

f 181/1/5 182/1/5 183/1/5 184/1/5

f 172/1/5 171/1/5 185/1/5 186/1/5

f 187/1/5 188/1/5 189/1/5 190/1/5

f 174/1/5 65/1/5 191/1/5 192/1/5

f 157/1/5 193/1/5 194/1/5 195/1/5

f 196/1/5 153/1/5 156/1/5 197/1/5

f 13/3/5 16/3/5 162/3/5 32/3/5

f 198/3/5 115/3/5 72/3/5 71/3/5

f 17/3/5 20/3/5 61/3/5 176/3/5

f 199/1/5 200/1/5 201/1/5 112/1/5

f 202/1/5 203/1/5 204/1/5 205/1/5

f 188/1/5 206/1/5 119/1/5 189/1/5

f 194/1/5 172/1/5 186/1/5 207/1/5

f 150/1/5 5/1/5 168/1/5 151/1/5

f 191/1/5 53/1/5 154/1/5 153/1/5

f 138/3/5 208/3/5 76/3/5 75/3/5

f 209/3/5 143/3/5 80/3/5 79/3/5

f 210/1/5 196/1/5 197/1/5 211/1/5

f 104/3/5 195/3/5 84/3/5 83/3/5

f 212/1/5 213/1/5 214/1/5 159/1/5

f 207/1/5 186/1/5 215/1/5 96/1/5

f 216/1/5 217/1/5 218/1/5 128/1/5

f 21/3/5 24/3/5 219/3/5 28/3/5

f 208/1/5 220/1/5 216/1/5 76/1/5

f 221/1/5 210/1/5 211/1/5 222/1/5

f 52/1/5 157/1/5 195/1/5 104/1/5

f 217/1/5 223/1/5 224/1/5 218/1/5

f 171/1/5 180/1/5 225/1/5 185/1/5

f 226/1/5 227/1/5 228/1/5 213/1/5

f 214/1/5 229/1/5 164/1/5 179/1/5

f 177/3/5 145/3/5 143/3/5 209/3/5

f 230/1/5 231/1/5 188/1/5 187/1/5

f 232/1/5 221/1/5 222/1/5 220/1/5

f 233/1/5 234/1/5 91/1/5 206/1/5

f 166/1/5 174/1/5 192/1/5 235/1/5

f 193/1/5 161/1/5 172/1/5 194/1/5

f 236/1/5 237/1/5 238/1/5 239/1/5

f 100/3/5 240/3/5 88/3/5 87/3/5

f 241/1/5 187/1/5 190/1/5 182/1/5

f 242/1/5 235/1/5 210/1/5 221/1/5

f 211/1/5 197/1/5 243/1/5 223/1/5

f 205/1/5 204/1/5 241/1/5 244/1/5

f 213/1/5 228/1/5 229/1/5 214/1/5

f 245/1/5 209/1/5 79/1/5 246/1/5

f 234/3/5 147/3/5 92/3/5 91/3/5

f 173/3/5 71/3/5 65/3/5 174/3/5

f 162/1/5 212/1/5 159/1/5 158/1/5

f 195/1/5 194/1/5 207/1/5 84/1/5

f 222/1/5 211/1/5 223/1/5 217/1/5

f 25/3/5 28/3/5 247/3/5 16/3/5

f 159/1/5 214/1/5 179/1/5 160/1/5

f 248/1/5 249/1/5 237/1/5 236/1/5

f 29/3/5 32/3/5 163/3/5 4/3/5

f 223/1/5 243/1/5 250/1/5 224/1/5

f 155/1/5 176/1/5 178/1/5 169/1/5

f 33/3/5 36/3/5 251/3/5 44/3/5

f 37/3/5 40/3/5 252/3/5 36/3/5

f 253/1/5 149/1/5 152/1/5 254/1/5

f 215/1/5 255/1/5 208/1/5 138/1/5

f 28/1/5 219/1/5 226/1/5 247/1/5

f 163/1/5 158/1/5 161/1/5 193/1/5

f 219/1/5 256/1/5 227/1/5 226/1/5

f 41/3/5 44/3/5 257/3/5 24/3/5

f 36/1/5 252/1/5 258/1/5 251/1/5

f 235/1/5 192/1/5 196/1/5 210/1/5

f 84/3/5 207/3/5 96/3/5 95/3/5

f 4/1/5 163/1/5 193/1/5 157/1/5

f 229/1/5 184/1/5 165/1/5 164/1/5

f 45/3/5 48/3/5 57/3/5 259/3/5

f 170/1/5 169/1/5 249/1/5 248/1/5

f 190/1/5 189/1/5 115/1/5 198/1/5

f 152/1/5 151/1/5 233/1/5 231/1/5

f 112/3/5 201/3/5 100/3/5 99/3/5

f 203/1/5 254/1/5 230/1/5 204/1/5

f 40/1/5 175/1/5 260/1/5 252/1/5

f 49/3/5 52/3/5 104/3/5 103/3/5

f 238/3/5 131/3/5 108/3/5 107/3/5

f 197/1/5 156/1/5 170/1/5 243/1/5

f 16/1/5 247/1/5 212/1/5 162/1/5

f 183/1/5 198/1/5 71/1/5 173/1/5

f 192/1/5 191/1/5 153/1/5 196/1/5

f 168/3/5 142/3/5 147/3/5 234/3/5

f 24/1/5 257/1/5 256/1/5 219/1/5

f 184/1/5 183/1/5 173/1/5 165/1/5

f 151/1/5 168/1/5 234/1/5 233/1/5

f 186/1/5 185/1/5 255/1/5 215/1/5

f 53/3/5 56/3/5 17/3/5 154/3/5

f 124/3/5 199/3/5 112/3/5 111/3/5

f 243/1/5 170/1/5 248/1/5 250/1/5

f 185/1/5 225/1/5 232/1/5 255/1/5

f 57/3/5 60/3/5 5/3/5 150/3/5

f 251/1/5 258/1/5 203/1/5 202/1/5

f 218/1/5 224/1/5 199/1/5 124/1/5

f 224/1/5 250/1/5 200/1/5 199/1/5

f 257/1/5 202/1/5 205/1/5 256/1/5

f 204/1/5 230/1/5 187/1/5 241/1/5

f 255/1/5 232/1/5 220/1/5 208/1/5

f 169/1/5 178/1/5 245/1/5 249/1/5

f 189/3/5 119/3/5 116/3/5 115/3/5

f 61/3/5 64/3/5 145/3/5 177/3/5

f 247/1/5 226/1/5 213/1/5 212/1/5

f 227/1/5 244/1/5 181/1/5 228/1/5

f 201/1/5 239/1/5 240/1/5 100/1/5

f 252/1/5 260/1/5 253/1/5 258/1/5

f 182/1/5 190/1/5 198/1/5 183/1/5

f 180/1/5 167/1/5 242/1/5 225/1/5

f 206/3/5 91/3/5 120/3/5 119/3/5

f 250/1/5 248/1/5 236/1/5 200/1/5

f 237/2/5 246/2/5 131/2/5 238/2/5

f 254/1/5 152/1/5 231/1/5 230/1/5

f 249/1/5 245/1/5 246/1/5 237/1/5

f 44/1/5 251/1/5 202/1/5 257/1/5

f 228/1/5 181/1/5 184/1/5 229/1/5

f 167/1/5 166/1/5 235/1/5 242/1/5

f 220/1/5 222/1/5 217/1/5 216/1/5

f 128/3/5 218/3/5 124/3/5 123/3/5

f 260/1/5 259/1/5 149/1/5 253/1/5

f 239/2/5 238/2/5 107/2/5 240/2/5

f 259/1/5 57/1/5 150/1/5 149/1/5

f 76/3/5 216/3/5 128/3/5 127/3/5

f 244/1/5 241/1/5 182/1/5 181/1/5

f 65/3/5 68/3/5 53/3/5 191/3/5

f 231/1/5 233/1/5 206/1/5 188/1/5

f 12/3/5 70/3/5 45/3/5 175/3/5

f 246/3/5 79/3/5 132/3/5 131/3/5

f 178/1/5 177/1/5 209/1/5 245/1/5

f 258/1/5 253/1/5 254/1/5 203/1/5

f 154/1/5 17/1/5 176/1/5 155/1/5

f 200/1/5 236/1/5 239/1/5 201/1/5

f 175/1/5 45/1/5 259/1/5 260/1/5

f 256/1/5 205/1/5 244/1/5 227/1/5

f 225/1/5 242/1/5 221/1/5 232/1/5

f 179/1/5 164/1/5 167/1/5 180/1/5

f 240/3/5 107/3/5 135/3/5 88/3/5

f 96/3/5 215/3/5 138/3/5 137/3/5

f 261/1/6 262/1/6 263/1/6 264/1/6

f 265/1/6 266/1/6 267/1/6 268/1/6

f 2/3/6 51/3/6 269/3/6 3/3/6

f 270/1/6 271/1/6 272/1/6 273/1/6

f 31/1/6 274/1/6 270/1/6 275/1/6

f 276/1/6 277/1/6 278/1/6 279/1/6

f 6/3/6 280/3/6 141/3/6 7/3/6

f 266/1/6 281/1/6 282/1/6 267/1/6

f 271/1/6 283/1/6 284/1/6 272/1/6

f 279/1/6 278/1/6 285/1/6 286/1/6

f 10/3/6 39/3/6 287/3/6 11/3/6

f 288/1/6 289/1/6 290/1/6 62/1/6

f 272/1/6 284/1/6 291/1/6 292/1/6

f 293/1/6 294/1/6 295/1/6 296/1/6

f 283/1/6 297/1/6 298/1/6 284/1/6

f 299/1/6 300/1/6 301/1/6 302/1/6

f 285/1/6 303/1/6 304/1/6 66/1/6

f 269/1/6 305/1/6 306/1/6 307/1/6

f 308/1/6 309/1/6 266/1/6 265/1/6

f 14/3/6 31/3/6 275/3/6 15/3/6

f 310/3/6 74/3/6 73/3/6 118/3/6

f 18/3/6 288/3/6 62/3/6 19/3/6

f 311/1/6 113/1/6 312/1/6 313/1/6

f 314/1/6 315/1/6 316/1/6 317/1/6

f 302/1/6 301/1/6 122/1/6 318/1/6

f 306/1/6 319/1/6 297/1/6 283/1/6

f 264/1/6 263/1/6 280/1/6 6/1/6

f 304/1/6 265/1/6 268/1/6 54/1/6

f 139/3/6 78/3/6 77/3/6 320/3/6

f 321/3/6 82/3/6 81/3/6 144/3/6

f 322/1/6 323/1/6 309/1/6 308/1/6

f 105/3/6 86/3/6 85/3/6 305/3/6

f 324/1/6 273/1/6 325/1/6 326/1/6

f 319/1/6 97/1/6 327/1/6 297/1/6

f 328/1/6 129/1/6 329/1/6 330/1/6

f 22/3/6 27/3/6 331/3/6 23/3/6

f 320/1/6 77/1/6 328/1/6 332/1/6

f 333/1/6 334/1/6 323/1/6 322/1/6

f 51/1/6 105/1/6 305/1/6 269/1/6

f 330/1/6 329/1/6 335/1/6 336/1/6

f 284/1/6 298/1/6 337/1/6 291/1/6

f 338/1/6 326/1/6 339/1/6 340/1/6

f 325/1/6 292/1/6 276/1/6 341/1/6

f 290/3/6 321/3/6 144/3/6 146/3/6

f 342/1/6 299/1/6 302/1/6 343/1/6

f 344/1/6 332/1/6 334/1/6 333/1/6

f 345/1/6 318/1/6 94/1/6 346/1/6

f 278/1/6 347/1/6 303/1/6 285/1/6

f 307/1/6 306/1/6 283/1/6 271/1/6

f 348/1/6 349/1/6 350/1/6 351/1/6

f 101/3/6 90/3/6 89/3/6 352/3/6

f 353/1/6 296/1/6 300/1/6 299/1/6

f 354/1/6 333/1/6 322/1/6 347/1/6

f 323/1/6 336/1/6 355/1/6 309/1/6

f 315/1/6 356/1/6 353/1/6 316/1/6

f 326/1/6 325/1/6 341/1/6 339/1/6

f 357/1/6 358/1/6 82/1/6 321/1/6

f 346/3/6 94/3/6 93/3/6 148/3/6

f 286/3/6 285/3/6 66/3/6 74/3/6

f 275/1/6 270/1/6 273/1/6 324/1/6

f 305/1/6 85/1/6 319/1/6 306/1/6

f 334/1/6 330/1/6 336/1/6 323/1/6

f 26/3/6 15/3/6 359/3/6 27/3/6

f 273/1/6 272/1/6 292/1/6 325/1/6

f 360/1/6 348/1/6 351/1/6 361/1/6

f 30/3/6 3/3/6 274/3/6 31/3/6

f 336/1/6 335/1/6 362/1/6 355/1/6

f 267/1/6 282/1/6 289/1/6 288/1/6

f 34/3/6 43/3/6 363/3/6 35/3/6

f 38/3/6 35/3/6 364/3/6 39/3/6

f 365/1/6 366/1/6 262/1/6 261/1/6

f 327/1/6 139/1/6 320/1/6 367/1/6

f 27/1/6 359/1/6 338/1/6 331/1/6

f 274/1/6 307/1/6 271/1/6 270/1/6

f 331/1/6 338/1/6 340/1/6 368/1/6

f 42/3/6 23/3/6 369/3/6 43/3/6

f 35/1/6 363/1/6 370/1/6 364/1/6

f 347/1/6 322/1/6 308/1/6 303/1/6

f 85/3/6 98/3/6 97/3/6 319/3/6

f 3/1/6 269/1/6 307/1/6 274/1/6

f 341/1/6 276/1/6 279/1/6 294/1/6

f 46/3/6 371/3/6 58/3/6 47/3/6

f 281/1/6 360/1/6 361/1/6 282/1/6

f 300/1/6 310/1/6 118/1/6 301/1/6

f 262/1/6 343/1/6 345/1/6 263/1/6

f 113/3/6 102/3/6 101/3/6 312/3/6

f 317/1/6 316/1/6 342/1/6 366/1/6

f 39/1/6 364/1/6 372/1/6 287/1/6

f 50/3/6 106/3/6 105/3/6 51/3/6

f 350/3/6 110/3/6 109/3/6 134/3/6

f 309/1/6 355/1/6 281/1/6 266/1/6

f 15/1/6 275/1/6 324/1/6 359/1/6

f 295/1/6 286/1/6 74/1/6 310/1/6

f 303/1/6 308/1/6 265/1/6 304/1/6

f 280/3/6 346/3/6 148/3/6 141/3/6

f 23/1/6 331/1/6 368/1/6 369/1/6

f 294/1/6 279/1/6 286/1/6 295/1/6

f 263/1/6 345/1/6 346/1/6 280/1/6

f 297/1/6 327/1/6 367/1/6 298/1/6

f 54/3/6 268/3/6 18/3/6 55/3/6

f 125/3/6 114/3/6 113/3/6 311/3/6

f 355/1/6 362/1/6 360/1/6 281/1/6

f 298/1/6 367/1/6 344/1/6 337/1/6

f 58/3/6 264/3/6 6/3/6 59/3/6

f 363/1/6 314/1/6 317/1/6 370/1/6

f 329/1/6 125/1/6 311/1/6 335/1/6

f 335/1/6 311/1/6 313/1/6 362/1/6

f 369/1/6 368/1/6 315/1/6 314/1/6

f 316/1/6 353/1/6 299/1/6 342/1/6

f 367/1/6 320/1/6 332/1/6 344/1/6

f 282/1/6 361/1/6 357/1/6 289/1/6

f 301/3/6 118/3/6 117/3/6 122/3/6

f 62/3/6 290/3/6 146/3/6 63/3/6

f 359/1/6 324/1/6 326/1/6 338/1/6

f 340/1/6 339/1/6 293/1/6 356/1/6

f 312/1/6 101/1/6 352/1/6 349/1/6

f 364/1/6 370/1/6 365/1/6 372/1/6

f 296/1/6 295/1/6 310/1/6 300/1/6

f 291/1/6 337/1/6 354/1/6 277/1/6

f 318/3/6 122/3/6 121/3/6 94/3/6

f 362/1/6 313/1/6 348/1/6 360/1/6

f 351/2/6 350/2/6 134/2/6 358/2/6

f 366/1/6 342/1/6 343/1/6 262/1/6

f 361/1/6 351/1/6 358/1/6 357/1/6

f 43/1/6 369/1/6 314/1/6 363/1/6

f 339/1/6 341/1/6 294/1/6 293/1/6

f 277/1/6 354/1/6 347/1/6 278/1/6

f 332/1/6 328/1/6 330/1/6 334/1/6

f 129/3/6 126/3/6 125/3/6 329/3/6

f 372/1/6 365/1/6 261/1/6 371/1/6

f 349/2/6 352/2/6 110/2/6 350/2/6

f 371/1/6 261/1/6 264/1/6 58/1/6

f 77/3/6 130/3/6 129/3/6 328/3/6

f 356/1/6 293/1/6 296/1/6 353/1/6

f 66/3/6 304/3/6 54/3/6 67/3/6

f 343/1/6 302/1/6 318/1/6 345/1/6

f 11/3/6 287/3/6 46/3/6 69/3/6

f 358/3/6 134/3/6 133/3/6 82/3/6

f 289/1/6 357/1/6 321/1/6 290/1/6

f 370/1/6 317/1/6 366/1/6 365/1/6

f 268/1/6 267/1/6 288/1/6 18/1/6

f 313/1/6 312/1/6 349/1/6 348/1/6

f 287/1/6 372/1/6 371/1/6 46/1/6

f 368/1/6 340/1/6 356/1/6 315/1/6

f 337/1/6 344/1/6 333/1/6 354/1/6

f 292/1/6 291/1/6 277/1/6 276/1/6

f 352/3/6 89/3/6 136/3/6 110/3/6

f 97/3/6 140/3/6 139/3/6 327/3/6

# numNormals 6
# numTexCoords 3
# numVerts 372
# numFaces 370
